{"glyphs":{"0":{"ha":843,"x_min":50,"x_max":793,"o":"m 235 907 q 278 940 235 907 q 422 972 321 972 q 608 907 522 972 q 743 730 693 842 q 793 486 793 618 q 743 242 793 354 q 608 65 693 131 q 422 0 522 0 q 235 65 321 0 q 100 242 150 131 q 50 486 50 354 q 100 730 50 618 q 235 907 150 842 m 490 127 q 535 184 490 127 q 625 425 581 240 q 641 758 669 610 q 528 933 613 907 q 353 845 444 958 q 218 547 263 732 q 202 214 174 363 q 315 40 231 65 q 490 127 399 14 z "},"1":{"ha":376,"x_min":49,"x_max":331,"o":"m 119 972 l 261 972 l 261 82 q 278 49 264 61 q 311 36 292 36 l 329 36 l 329 0 l 49 0 l 49 36 l 67 36 q 102 49 88 36 q 119 82 117 61 l 119 890 l 49 890 l 49 926 l 67 926 q 103 940 88 926 q 119 971 119 953 l 119 972 z "},"2":{"ha":824,"x_min":29,"x_max":772,"o":"m 772 36 l 772 0 l 29 0 l 29 36 l 32 36 q 68 172 42 113 q 131 272 94 232 q 213 342 168 311 q 306 394 258 372 q 400 438 353 417 q 489 486 447 460 q 562 546 531 513 q 612 630 593 579 q 631 747 631 681 q 563 881 631 825 q 400 936 496 936 q 271 903 329 936 q 188 817 213 871 l 154 836 l 107 864 q 235 943 158 914 q 401 972 313 972 q 663 891 554 972 q 772 694 772 810 q 751 546 772 610 q 695 442 731 482 q 613 372 660 401 q 512 324 565 343 q 404 289 458 306 q 297 252 350 272 q 200 206 244 232 q 122 137 156 181 q 72 36 88 93 l 690 36 q 723 53 710 39 q 736 88 736 68 l 736 106 l 772 106 l 772 36 z "},"3":{"ha":792,"x_min":69,"x_max":739,"o":"m 367 972 q 630 909 521 972 q 739 756 739 846 q 674 633 739 688 q 504 554 608 579 q 674 449 608 522 q 739 288 739 376 q 630 84 739 168 q 367 0 521 0 q 199 31 278 0 q 69 115 121 61 l 121 144 l 160 168 q 303 43 204 69 q 478 72 394 18 q 588 228 561 126 q 569 418 614 329 q 432 532 524 507 q 381 539 407 539 l 374 539 l 367 539 l 296 539 l 296 575 l 367 575 l 367 576 q 392 575 378 575 l 399 575 q 523 609 469 575 q 592 697 576 643 q 560 835 613 768 q 415 926 508 903 q 276 929 342 946 q 172 868 210 913 l 121 897 l 103 908 q 367 972 213 972 z "},"4":{"ha":928,"x_min":69,"x_max":882,"o":"m 414 972 l 575 972 l 226 363 l 671 363 l 671 972 l 813 972 l 813 82 q 829 49 815 61 q 863 36 843 36 l 881 36 l 881 0 l 600 0 l 600 36 l 618 36 q 653 49 638 36 q 671 82 668 61 l 671 326 l 207 326 l 206 326 l 201 326 l 69 326 l 69 363 l 414 972 z "},"5":{"ha":844,"x_min":51,"x_max":794,"o":"m 51 972 l 794 972 l 794 867 l 758 867 l 758 885 q 745 919 758 904 q 711 936 732 935 l 193 936 l 193 575 l 432 575 q 689 488 583 571 q 794 288 794 404 q 685 84 794 168 q 422 0 576 0 q 255 31 333 0 q 125 115 176 63 l 176 144 l 215 168 q 358 43 260 69 q 533 72 450 18 q 644 228 617 126 q 625 418 671 329 q 488 532 579 507 q 432 539 460 539 l 429 539 l 422 539 l 51 539 l 51 972 z "},"6":{"ha":843,"x_min":58,"x_max":801,"o":"m 429 575 q 692 490 583 575 q 801 287 801 406 q 692 84 801 168 q 430 0 583 0 q 167 84 276 0 q 58 288 58 168 l 58 771 l 60 771 q 176 914 69 856 q 429 972 283 972 q 693 908 585 972 l 676 897 l 604 856 q 478 928 554 907 q 305 918 385 951 q 206 814 225 885 q 200 771 199 793 l 200 513 q 429 575 301 575 m 540 72 q 582 99 540 72 q 651 228 624 126 q 632 418 678 329 q 494 532 586 507 q 319 503 403 557 q 209 347 236 449 q 228 157 182 246 q 365 43 274 68 q 540 72 457 18 z "},"7":{"ha":882,"x_min":69,"x_max":814,"o":"m 69 972 l 813 972 l 813 936 l 542 82 l 540 78 l 539 75 q 542 43 532 50 q 586 36 553 36 l 586 0 l 300 0 l 300 36 q 359 47 329 36 q 396 82 389 58 l 396 81 l 667 938 l 151 938 l 151 936 q 118 919 132 935 q 104 885 104 904 l 104 867 l 69 867 l 69 972 z "},"8":{"ha":849,"x_min":51,"x_max":796,"o":"m 561 554 q 731 449 665 522 q 796 288 796 376 q 687 84 796 168 q 424 0 578 0 q 162 84 271 0 q 53 288 53 168 q 118 449 53 376 q 288 554 183 522 q 118 633 183 578 q 53 756 53 688 q 162 909 53 846 q 424 972 271 972 q 687 909 578 972 q 796 756 796 846 q 731 633 796 688 q 561 554 665 578 m 299 918 q 259 901 299 918 q 199 814 219 885 q 231 676 179 743 q 376 584 283 608 q 549 593 469 560 q 649 697 629 626 q 617 835 669 768 q 472 927 565 903 q 299 918 378 951 m 535 72 q 576 99 535 72 q 645 228 618 126 q 626 418 672 329 q 489 532 581 507 q 314 503 397 557 q 203 347 231 449 q 222 157 176 246 q 360 43 268 68 q 535 72 451 18 z "},"9":{"ha":843,"x_min":40,"x_max":785,"o":"m 151 888 q 205 930 151 888 q 413 972 260 972 q 676 888 567 972 q 785 685 785 804 l 785 201 l 783 201 q 667 58 774 117 q 413 0 560 0 q 149 64 258 0 l 167 75 l 239 115 q 365 46 289 65 q 538 54 458 21 q 638 158 618 88 q 643 201 644 181 l 643 460 q 414 397 542 397 q 151 481 260 397 q 42 685 42 565 q 151 888 42 804 m 524 469 q 565 497 524 469 q 634 625 607 524 q 615 815 661 726 q 478 929 569 904 q 303 900 386 954 q 192 744 219 846 q 211 554 165 643 q 349 440 257 465 q 524 469 440 415 z "},"\u000b":{"ha":732,"x_min":69,"x_max":663,"o":"m 69 972 l 663 972 l 663 0 l 69 0 l 69 972 m 108 944 l 365 515 l 624 944 l 108 944 m 349 486 l 99 903 l 99 68 l 349 486 m 367 457 l 110 29 l 624 29 l 367 457 m 383 486 l 635 65 l 635 906 l 383 486 z "},"\f":{"ha":732,"x_min":69,"x_max":663,"o":"m 69 972 l 663 972 l 663 0 l 69 0 l 69 972 m 108 944 l 365 515 l 624 944 l 108 944 m 349 486 l 99 903 l 99 68 l 349 486 m 367 457 l 110 29 l 624 29 l 367 457 m 383 486 l 635 65 l 635 906 l 383 486 z "},"þ":{"ha":732,"x_min":69,"x_max":663,"o":"m 69 972 l 663 972 l 663 0 l 69 0 l 69 972 m 108 944 l 365 515 l 624 944 l 108 944 m 349 486 l 99 903 l 99 68 l 349 486 m 367 457 l 110 29 l 624 29 l 367 457 m 383 486 l 635 65 l 635 906 l 383 486 z "},"‚":{"ha":732,"x_min":69,"x_max":663,"o":"m 69 972 l 663 972 l 663 0 l 69 0 l 69 972 m 108 944 l 365 515 l 624 944 l 108 944 m 349 486 l 99 903 l 99 68 l 349 486 m 367 457 l 110 29 l 624 29 l 367 457 m 383 486 l 635 65 l 635 906 l 383 486 z "},"‛":{"ha":732,"x_min":69,"x_max":663,"o":"m 69 972 l 663 972 l 663 0 l 69 0 l 69 972 m 108 944 l 365 515 l 624 944 l 108 944 m 349 486 l 99 903 l 99 68 l 349 486 m 367 457 l 110 29 l 624 29 l 367 457 m 383 486 l 635 65 l 635 906 l 383 486 z "},"\u0000":{"ha":0,"x_min":0,"x_max":0,"o":""},"\n":{"ha":0,"x_min":0,"x_max":0,"o":""},"\r":{"ha":0,"x_min":0,"x_max":0,"o":""}," ":{"ha":497,"x_min":0,"x_max":0,"o":""},"!":{"ha":256,"x_min":57,"x_max":199,"o":"m 178 20 q 167 10 178 20 q 128 0 157 0 q 78 20 99 0 q 57 70 57 40 q 78 120 57 100 q 128 140 99 140 q 178 120 157 140 q 199 70 199 100 q 178 20 199 40 m 58 971 l 197 971 l 146 176 l 110 176 l 58 971 z "},"\"":{"ha":396,"x_min":39,"x_max":367,"o":"m 286 772 q 236 792 257 771 q 215 842 215 813 q 236 892 215 872 q 286 913 257 913 q 354 857 343 913 q 328 761 365 803 q 238 739 292 725 q 286 772 261 746 m 110 772 q 60 792 81 771 q 39 842 39 813 q 60 892 39 872 q 110 913 81 913 q 178 857 167 913 q 151 761 190 803 q 61 739 115 725 q 110 772 85 746 z "},"“":{"ha":396,"x_min":39,"x_max":367,"o":"m 286 772 q 236 792 257 771 q 215 842 215 813 q 236 892 215 872 q 286 913 257 913 q 354 857 343 913 q 328 761 365 803 q 238 739 292 725 q 286 772 261 746 m 110 772 q 60 792 81 771 q 39 842 39 813 q 60 892 39 872 q 110 913 81 913 q 178 857 167 913 q 151 761 190 803 q 61 739 115 725 q 110 772 85 746 z "},"”":{"ha":396,"x_min":39,"x_max":367,"o":"m 286 772 q 236 792 257 771 q 215 842 215 813 q 236 892 215 872 q 286 913 257 913 q 354 857 343 913 q 328 761 365 803 q 238 739 292 725 q 286 772 261 746 m 110 772 q 60 792 81 771 q 39 842 39 813 q 60 892 39 872 q 110 913 81 913 q 178 857 167 913 q 151 761 190 803 q 61 739 115 725 q 110 772 85 746 z "},"#":{"ha":824,"x_min":39,"x_max":783,"o":"m 496 557 l 353 557 l 328 417 l 471 417 l 496 557 m 571 972 l 571 974 l 714 974 l 646 593 l 783 593 l 783 557 l 639 557 l 614 417 l 783 417 l 783 381 l 607 381 l 539 0 l 396 0 l 464 381 l 321 381 l 253 0 l 110 0 l 178 381 l 40 381 l 40 415 l 185 415 l 210 557 l 40 557 l 40 593 l 215 593 l 285 972 l 428 972 l 360 593 l 503 593 l 571 972 z "},"$":{"ha":829,"x_min":42,"x_max":786,"o":"m 343 572 l 343 928 q 247 886 289 921 q 190 799 204 851 q 206 653 164 704 q 343 572 247 603 m 485 385 l 485 32 q 583 74 540 39 q 639 161 625 108 q 623 304 665 254 q 485 385 581 354 m 485 535 q 575 510 539 522 q 655 477 611 499 q 724 430 699 456 q 768 364 750 404 q 786 272 786 324 q 701 94 786 171 q 485 -1 615 18 l 485 -42 l 343 -42 l 343 -1 q 121 103 207 18 l 243 174 q 343 64 283 100 l 343 422 q 254 448 290 436 q 174 481 218 460 q 105 529 131 503 q 61 596 79 556 q 43 688 43 636 q 128 865 43 789 q 343 961 214 942 l 343 1001 l 485 1001 l 485 961 q 708 857 622 940 l 586 786 q 485 896 546 860 l 485 535 z "},"%":{"ha":500,"x_min":38,"x_max":463,"o":"m 442 20 q 431 10 442 20 q 392 0 421 0 q 342 20 363 0 q 321 70 321 40 q 342 120 321 100 q 392 140 363 140 q 442 120 421 140 q 463 70 463 100 q 442 20 463 40 m 158 851 q 148 841 158 851 q 108 831 138 831 q 58 851 79 831 q 38 901 38 871 q 58 951 38 931 q 108 972 79 972 q 158 951 138 972 q 179 901 179 931 q 158 851 179 871 m 265 971 l 410 971 l 233 0 l 90 0 l 265 971 z "},"&":{"ha":990,"x_min":53,"x_max":961,"o":"m 961 576 l 961 542 l 600 542 q 742 437 689 504 q 796 289 796 369 q 838 134 792 203 q 961 44 883 65 l 961 6 q 725 119 814 26 q 594 33 674 65 q 424 0 515 0 q 162 85 271 0 q 53 288 53 169 q 118 450 53 378 q 288 556 183 522 q 118 634 183 579 q 53 757 53 689 q 162 909 53 846 q 424 972 271 972 q 688 908 579 972 l 671 899 l 599 857 q 472 928 549 908 q 299 919 378 951 q 199 815 219 886 q 231 676 179 743 q 376 585 283 610 q 424 576 399 579 l 961 576 m 535 72 q 576 99 535 72 q 644 228 618 126 q 626 419 671 329 q 489 533 581 508 q 314 503 397 557 q 203 347 231 449 q 222 157 176 246 q 360 43 268 68 q 535 72 451 18 z "},"'":{"ha":219,"x_min":39,"x_max":190,"o":"m 110 772 q 60 792 81 771 q 39 842 39 813 q 60 892 39 872 q 110 913 81 913 q 178 857 167 913 q 151 761 190 803 q 61 739 115 725 q 110 772 85 746 z "},"‘":{"ha":219,"x_min":39,"x_max":190,"o":"m 110 772 q 60 792 81 771 q 39 842 39 813 q 60 892 39 872 q 110 913 81 913 q 178 857 167 913 q 151 761 190 803 q 61 739 115 725 q 110 772 85 746 z "},"’":{"ha":219,"x_min":39,"x_max":190,"o":"m 110 772 q 60 792 81 771 q 39 842 39 813 q 60 892 39 872 q 110 913 81 913 q 178 857 167 913 q 151 761 190 803 q 61 739 115 725 q 110 772 85 746 z "},"(":{"ha":493,"x_min":51,"x_max":424,"o":"m 422 -58 l 422 -94 q 237 -24 322 -94 q 101 165 151 46 q 51 426 51 285 q 101 688 51 568 q 237 878 151 808 q 422 949 322 949 l 422 913 q 307 848 360 913 q 224 671 254 783 q 193 426 193 558 q 224 183 193 294 q 307 6 254 71 q 422 -58 360 -58 z "},")":{"ha":493,"x_min":69,"x_max":442,"o":"m 69 -94 l 69 -58 q 185 6 132 -58 q 269 183 238 71 q 300 426 300 294 q 269 671 300 558 q 185 848 238 783 q 69 913 132 913 l 69 949 q 256 878 171 949 q 391 688 342 808 q 440 426 440 568 q 391 165 440 285 q 256 -24 342 46 q 69 -94 171 -94 z "},"*":{"ha":329,"x_min":40,"x_max":289,"o":"m 182 747 l 182 665 l 146 665 l 146 747 l 89 689 l 64 714 l 121 772 l 40 772 l 40 807 l 121 807 l 64 864 l 89 889 l 146 832 l 146 913 l 182 913 l 182 832 l 239 889 l 264 864 l 207 807 l 288 807 l 288 772 l 207 772 l 264 714 l 239 689 l 182 747 z "},"+":{"ha":324,"x_min":38,"x_max":286,"o":"m 179 444 l 285 444 l 285 410 l 179 410 l 179 303 l 143 303 l 143 410 l 38 410 l 38 444 l 143 444 l 143 551 l 179 551 l 179 444 z "},",":{"ha":217,"x_min":38,"x_max":189,"o":"m 108 0 q 58 19 79 -1 q 38 70 38 40 q 58 120 38 100 q 108 140 79 140 q 176 85 165 140 q 150 -10 189 31 q 60 -33 114 -47 q 108 0 83 -26 z "},"-":{"ha":301,"x_min":26,"x_max":275,"o":"m 274 410 l 26 410 l 26 444 l 274 444 l 274 410 z "},".":{"ha":217,"x_min":38,"x_max":179,"o":"m 158 20 q 148 10 158 20 q 108 0 138 0 q 58 20 79 0 q 38 70 38 40 q 58 120 38 100 q 108 140 79 140 q 158 120 138 140 q 179 70 179 100 q 158 20 179 40 z "},"/":{"ha":403,"x_min":42,"x_max":361,"o":"m 217 971 l 360 971 l 185 0 l 42 0 l 217 971 z "},":":{"ha":231,"x_min":44,"x_max":186,"o":"m 165 465 q 155 455 165 465 q 115 444 144 444 q 65 465 86 444 q 44 515 44 486 q 65 565 44 544 q 115 586 86 586 q 165 565 144 586 q 186 515 186 544 q 165 465 186 486 m 165 289 q 155 278 165 289 q 115 268 144 268 q 65 289 86 268 q 44 339 44 310 q 65 389 44 368 q 115 410 86 410 q 165 389 144 410 q 186 339 186 368 q 165 289 186 310 z "},";":{"ha":232,"x_min":44,"x_max":196,"o":"m 165 465 q 155 455 165 465 q 115 444 144 444 q 65 465 86 444 q 44 515 44 486 q 65 565 44 544 q 115 586 86 586 q 165 565 144 586 q 186 515 186 544 q 165 465 186 486 m 117 268 q 65 289 86 268 q 44 339 44 310 q 65 389 44 368 q 115 410 86 410 q 183 354 172 410 q 157 258 196 299 q 68 236 121 221 q 117 268 90 242 z "},"<":{"ha":328,"x_min":39,"x_max":288,"o":"m 286 556 l 286 517 l 82 428 l 286 338 l 286 299 l 39 408 l 39 446 l 286 556 z "},"=":{"ha":313,"x_min":32,"x_max":281,"o":"m 32 410 l 279 410 l 279 374 l 32 374 l 32 410 m 32 481 l 279 481 l 279 444 l 32 444 l 32 481 z "},">":{"ha":328,"x_min":40,"x_max":289,"o":"m 40 517 l 40 556 l 288 446 l 288 408 l 40 299 l 40 338 l 244 428 l 40 517 z "},"?":{"ha":776,"x_min":69,"x_max":736,"o":"m 414 20 q 403 10 414 20 q 364 0 393 0 q 314 20 335 0 q 293 70 293 40 q 314 120 293 100 q 364 140 335 140 q 414 120 393 140 q 435 70 435 100 q 414 20 435 40 m 735 693 q 718 573 735 619 q 675 506 701 526 q 617 472 649 485 q 553 444 585 460 q 494 403 521 429 q 451 319 468 376 q 435 176 435 263 l 292 176 q 304 361 292 288 q 338 470 317 435 q 386 524 360 506 q 442 550 413 542 q 499 569 472 558 q 549 608 525 579 q 588 688 574 636 q 592 749 596 717 q 572 808 588 781 q 535 860 557 835 q 484 902 513 886 q 425 928 456 918 q 361 935 394 939 q 298 917 328 932 q 240 871 268 903 q 192 792 211 839 l 69 863 q 198 943 121 914 q 364 972 275 972 q 626 890 518 972 q 735 693 735 808 z "},"@":{"ha":1244,"x_min":25,"x_max":1231,"o":"m 769 963 q 1158 756 1064 963 q 1168 388 1231 599 q 1010 119 1117 213 q 875 60 943 60 q 783 104 819 60 q 739 225 747 149 q 619 104 685 149 q 492 60 554 60 q 349 166 392 60 q 347 423 307 272 q 487 680 388 574 q 686 786 586 786 q 829 679 786 786 l 857 785 l 999 785 q 882 125 847 217 q 940 161 897 85 q 1035 464 1006 279 q 972 861 1082 746 q 885 915 938 899 q 665 903 785 944 q 435 764 544 863 q 256 532 326 665 q 174 271 185 399 q 214 52 164 143 q 364 -69 264 -39 q 490 -79 422 -86 l 479 -117 q 218 -44 328 -117 q 67 152 108 28 q 65 423 25 276 q 212 694 104 569 q 468 890 319 818 q 769 963 617 963 m 583 163 q 622 203 583 163 q 724 371 660 243 q 804 599 789 499 q 776 713 819 699 q 656 647 732 726 q 515 440 579 567 q 435 212 450 313 q 464 97 421 111 q 583 163 507 83 z "},"A":{"ha":976,"x_min":28,"x_max":949,"o":"m 375 936 l 375 972 l 607 974 l 854 82 q 947 35 867 35 l 947 0 l 660 0 l 660 35 q 676 35 671 35 q 692 38 682 36 q 703 44 701 40 q 710 57 706 49 q 708 78 714 65 l 610 433 l 272 433 l 131 75 q 126 56 124 64 q 131 44 129 49 q 141 38 132 40 q 155 35 150 36 q 172 35 160 35 l 172 0 l 28 0 l 28 35 q 68 42 56 35 q 92 74 81 49 l 418 900 q 421 918 424 911 q 417 929 418 925 q 408 935 415 933 q 395 936 400 936 q 381 936 390 936 q 375 936 376 936 m 600 468 l 469 936 l 286 468 l 600 468 z "},"B":{"ha":869,"x_min":28,"x_max":842,"o":"m 240 574 l 433 574 q 553 608 500 572 q 624 706 607 644 q 601 843 643 778 q 482 929 560 908 q 433 936 458 936 l 240 936 l 240 574 m 240 35 l 469 36 q 607 92 546 39 q 690 228 668 144 q 672 417 717 328 q 535 532 626 507 q 435 539 507 539 l 240 539 l 240 35 m 28 972 l 435 972 q 672 909 574 972 q 771 756 771 846 q 719 640 771 692 q 582 561 667 588 q 769 458 696 533 q 842 288 842 382 q 733 84 842 168 q 469 0 624 0 l 28 0 l 28 35 q 99 82 92 35 l 99 890 q 76 927 94 918 q 28 936 58 936 l 28 972 z "},"C":{"ha":976,"x_min":40,"x_max":949,"o":"m 526 0 q 283 65 394 0 q 106 242 171 131 q 40 486 40 354 q 106 730 40 618 q 283 907 171 842 q 526 972 394 972 q 772 906 660 972 q 947 729 883 840 l 810 650 q 728 778 779 717 q 608 887 676 840 q 467 938 540 933 q 318 899 394 943 q 185 649 206 824 q 251 304 165 475 q 353 158 293 221 q 478 65 414 96 q 610 36 543 35 q 735 74 678 38 q 863 292 836 142 l 947 243 q 772 66 883 132 q 526 0 660 0 z "},"D":{"ha":869,"x_min":28,"x_max":842,"o":"m 240 936 l 240 35 q 471 94 365 35 q 638 257 576 153 q 700 486 700 361 q 638 715 700 611 q 471 878 576 819 q 240 936 365 936 m 28 972 l 356 972 q 599 907 488 972 q 776 730 711 842 q 842 486 842 618 q 776 242 842 354 q 599 65 711 131 q 356 0 488 0 l 28 0 l 28 35 q 99 82 92 35 l 99 890 q 28 938 92 938 l 28 972 z "},"E":{"ha":863,"x_min":28,"x_max":842,"o":"m 28 972 l 842 972 l 842 867 l 806 867 q 760 938 806 932 l 240 938 l 240 272 q 337 427 274 358 q 483 536 400 496 q 592 575 536 563 q 606 578 596 576 q 622 581 615 579 q 635 585 628 582 q 647 593 643 589 q 664 651 664 608 l 700 651 l 700 475 l 664 475 q 468 488 664 604 q 302 320 364 426 q 240 88 240 214 l 240 36 l 760 36 q 806 107 806 42 l 842 107 l 842 0 l 28 0 l 28 36 q 99 82 92 36 l 99 892 q 28 938 92 938 l 28 972 z "},"F":{"ha":863,"x_min":28,"x_max":842,"o":"m 28 972 l 842 972 l 842 867 l 806 867 q 760 938 806 931 l 240 938 l 240 254 q 338 409 275 340 q 483 518 400 478 q 592 557 536 544 q 606 560 596 558 q 622 563 615 561 q 635 567 628 564 q 647 575 643 571 q 664 633 664 590 l 700 633 l 700 457 l 664 457 q 468 469 664 586 q 305 306 367 410 q 240 81 243 203 q 311 36 247 36 l 311 0 l 28 0 l 28 35 q 99 82 92 35 l 99 890 q 28 938 92 938 l 28 972 z "},"G":{"ha":1100,"x_min":26,"x_max":1072,"o":"m 514 0 q 270 65 382 0 q 93 242 158 131 q 28 486 28 354 q 93 730 28 618 q 270 907 158 842 q 514 972 382 972 q 759 906 647 972 q 935 729 871 840 l 797 650 q 789 668 794 656 q 687 814 747 751 q 562 907 626 876 q 430 936 497 938 q 306 899 363 935 q 173 649 193 824 q 239 304 153 475 q 326 181 274 236 q 440 92 379 126 q 565 50 500 58 q 686 60 629 42 q 790 139 743 79 q 860 292 836 199 l 860 351 q 789 397 854 397 l 789 433 l 1072 433 l 1072 397 q 1001 351 1007 397 l 1001 82 q 1072 35 1007 35 l 1072 0 l 860 0 l 860 144 q 703 38 792 76 q 514 0 614 0 z "},"H":{"ha":940,"x_min":28,"x_max":913,"o":"m 311 972 l 311 938 q 240 890 246 938 l 240 575 l 700 575 l 700 890 q 629 938 693 938 l 629 972 l 913 972 l 913 938 q 842 890 847 938 l 842 82 q 913 35 847 35 l 913 0 l 629 0 l 629 35 q 700 82 693 35 l 700 539 l 240 539 l 240 82 q 311 35 246 35 l 311 0 l 28 0 l 28 35 q 99 82 92 35 l 99 890 q 76 927 94 918 q 28 936 58 936 l 28 972 l 311 972 z "},"I":{"ha":339,"x_min":28,"x_max":311,"o":"m 311 972 l 311 938 q 240 890 246 938 l 240 82 q 311 35 246 35 l 311 0 l 28 0 l 28 35 q 99 82 92 35 l 99 890 q 28 938 92 938 l 28 972 l 311 972 z "},"J":{"ha":844,"x_min":14,"x_max":817,"o":"m 14 279 l 143 353 l 143 265 q 211 103 143 171 q 374 35 279 35 q 535 103 468 35 q 603 265 603 171 l 603 890 q 532 938 597 938 l 532 972 l 815 972 l 815 938 q 744 890 751 938 l 744 372 q 635 109 744 218 q 374 0 526 0 q 147 78 247 0 q 14 279 46 156 z "},"K":{"ha":863,"x_min":28,"x_max":842,"o":"m 311 972 l 311 938 q 240 890 246 938 l 240 579 l 714 924 q 715 935 721 933 q 700 938 710 938 l 700 972 l 842 972 l 842 938 q 749 904 792 938 l 308 585 l 801 43 q 842 35 813 35 l 842 0 l 582 0 l 582 35 q 601 36 596 35 q 607 44 607 38 q 594 65 607 51 l 240 456 l 240 82 q 311 35 246 35 l 311 0 l 28 0 l 28 35 q 99 82 92 35 l 99 890 q 28 938 92 938 l 28 972 l 311 972 z "},"L":{"ha":863,"x_min":28,"x_max":842,"o":"m 311 972 l 311 938 q 240 890 246 938 l 240 36 l 760 36 q 806 107 806 42 l 842 107 l 842 0 l 28 0 l 28 35 q 99 82 92 35 l 99 890 q 28 938 92 938 l 28 972 l 311 972 z "},"M":{"ha":1169,"x_min":28,"x_max":1142,"o":"m 28 972 l 240 972 l 585 36 l 921 972 l 1142 972 l 1142 938 q 1071 890 1076 938 l 1071 82 q 1142 35 1076 35 l 1142 0 l 964 0 l 964 35 q 1035 82 1029 35 l 1035 874 l 722 0 l 560 0 l 240 871 l 240 82 q 311 35 246 35 l 311 0 l 28 0 l 28 35 q 99 82 92 35 l 99 890 q 28 938 92 938 l 28 972 z "},"N":{"ha":940,"x_min":28,"x_max":913,"o":"m 28 0 l 28 35 q 99 82 92 35 l 99 890 q 28 938 92 938 l 28 972 l 257 972 l 806 58 l 806 890 q 735 938 800 938 l 735 972 q 913 972 735 972 l 913 938 q 842 890 847 938 l 842 82 q 913 35 847 35 l 913 0 l 683 0 l 133 914 l 133 82 q 204 35 140 35 l 204 0 l 28 0 z "},"O":{"ha":1014,"x_min":21,"x_max":993,"o":"m 263 907 q 319 940 263 907 q 507 972 375 972 q 751 907 639 972 q 928 730 863 842 q 993 486 993 618 q 928 242 993 354 q 751 65 863 131 q 507 0 639 0 q 263 65 375 0 q 86 242 151 131 q 21 486 21 354 q 86 730 21 618 q 263 907 151 842 m 714 74 q 848 323 828 149 q 782 668 868 497 q 680 814 740 751 q 555 907 619 876 q 423 936 490 938 q 299 899 356 935 q 165 649 185 824 q 232 304 146 475 q 334 158 274 221 q 459 65 394 96 q 591 36 524 35 q 714 74 658 38 z "},"P":{"ha":863,"x_min":28,"x_max":842,"o":"m 518 936 l 240 936 l 240 575 l 518 575 q 647 628 593 575 q 700 756 700 681 q 647 883 700 831 q 518 936 593 936 m 28 972 l 625 972 q 778 908 714 972 q 842 756 842 844 q 778 603 842 667 q 625 539 714 539 l 240 539 l 240 82 q 311 35 246 35 l 311 0 l 28 0 l 28 35 q 99 82 92 35 l 99 890 q 28 938 92 938 l 28 972 z "},"Q":{"ha":1081,"x_min":28,"x_max":1053,"o":"m 710 67 q 722 74 717 71 q 856 323 836 149 q 789 668 875 497 q 687 814 747 751 q 562 907 626 876 q 430 936 497 938 q 307 899 363 935 q 173 649 193 824 q 239 304 153 475 q 422 90 310 163 q 642 40 535 18 q 575 208 593 118 l 600 208 q 710 67 628 125 m 514 0 q 270 65 382 0 q 93 242 158 131 q 28 486 28 354 q 93 730 28 618 q 270 907 158 842 q 514 972 382 972 q 758 907 646 972 q 935 730 869 842 q 1000 486 1000 618 q 926 229 1000 346 q 732 51 853 113 q 1051 -24 867 -32 l 1051 -183 q 926 -168 988 -183 q 656 21 757 -122 q 514 0 588 0 z "},"R":{"ha":933,"x_min":28,"x_max":913,"o":"m 519 936 l 240 936 l 240 575 l 519 575 q 647 628 593 575 q 700 756 700 681 q 647 883 700 831 q 519 936 593 936 m 28 972 l 625 972 q 778 908 714 972 q 842 756 842 844 q 796 622 842 681 q 679 546 750 564 q 797 440 751 510 q 842 288 842 371 l 842 82 q 913 35 847 35 l 913 0 l 629 0 l 629 35 q 700 82 694 35 l 700 310 q 633 472 700 404 q 469 539 565 539 l 240 539 l 240 81 q 311 35 246 35 l 311 0 l 28 0 l 28 35 q 99 82 92 35 l 99 890 q 28 938 92 938 l 28 972 z "},"S":{"ha":785,"x_min":19,"x_max":764,"o":"m 764 278 q 655 81 764 163 q 393 0 546 0 q 227 29 304 0 q 99 108 150 58 l 221 179 q 304 82 256 118 q 401 40 353 46 q 494 45 449 33 q 572 90 539 57 q 617 167 604 122 q 615 287 636 239 q 542 360 593 335 q 424 402 490 385 q 286 439 357 419 q 156 485 215 458 q 59 564 97 511 q 21 694 21 617 q 130 891 21 810 q 392 972 239 972 q 558 943 481 972 q 686 864 635 914 l 564 793 q 481 890 529 854 q 383 933 432 926 q 290 927 335 939 q 213 883 246 915 q 168 806 181 850 q 163 705 153 743 q 203 638 172 667 q 278 594 235 608 q 376 563 322 579 q 483 536 429 547 q 587 504 536 525 q 677 457 638 483 q 740 385 717 431 q 764 278 764 339 z "},"T":{"ha":779,"x_min":18,"x_max":761,"o":"m 761 972 l 761 867 l 725 867 q 679 938 725 931 l 460 938 l 460 82 q 531 36 467 36 l 531 0 l 249 0 l 249 35 q 319 82 313 35 l 319 936 l 100 936 q 53 865 53 931 l 18 865 l 18 972 l 761 972 z "},"U":{"ha":940,"x_min":28,"x_max":913,"o":"m 311 972 l 311 938 q 240 890 246 938 l 240 265 q 308 103 240 171 q 470 35 375 35 q 633 103 565 35 q 700 265 700 171 l 700 890 q 629 938 693 938 l 629 972 l 913 972 l 913 938 q 842 890 847 938 l 842 372 q 733 109 842 218 q 470 0 624 0 q 208 109 317 0 q 99 372 99 218 l 99 890 q 28 938 92 938 l 28 972 l 311 972 z "},"V":{"ha":1006,"x_min":28,"x_max":978,"o":"m 692 972 q 834 972 739 972 q 976 972 929 972 l 976 938 q 888 890 897 938 l 639 0 l 478 1 l 125 899 q 95 930 115 924 q 28 938 75 936 l 28 972 l 204 972 l 204 938 q 185 937 192 938 q 171 934 179 936 q 160 928 163 932 q 158 917 158 925 q 163 899 158 910 l 503 36 l 739 889 q 692 938 753 938 l 692 972 z "},"W":{"ha":1193,"x_min":21,"x_max":1172,"o":"m 1097 890 l 1065 0 l 924 0 l 596 890 l 276 0 l 126 0 l 94 892 q 21 936 93 936 l 21 972 l 197 972 l 197 938 q 129 893 131 938 l 158 90 l 476 974 l 603 972 q 926 93 779 494 l 956 890 q 938 928 957 918 q 888 938 918 938 l 888 972 l 1171 972 l 1171 938 q 1097 890 1099 938 z "},"X":{"ha":854,"x_min":28,"x_max":826,"o":"m 763 914 l 479 443 q 753 63 678 168 q 781 40 765 44 q 825 35 797 35 l 825 0 l 686 0 l 686 35 q 689 35 686 35 q 706 35 701 35 q 717 40 711 36 q 715 56 722 44 l 460 410 l 256 68 q 249 53 250 60 q 250 42 249 46 q 258 38 251 39 q 270 36 265 36 q 285 35 275 36 l 285 0 l 28 0 l 28 36 q 96 67 76 38 l 374 529 q 287 649 344 571 q 183 790 229 726 q 101 907 138 853 q 72 931 88 926 q 28 936 57 936 l 28 972 l 169 972 l 169 938 q 153 937 160 938 q 141 934 146 936 q 138 925 136 932 q 147 904 139 918 l 393 563 l 599 904 q 605 920 604 914 q 603 930 606 926 q 594 935 601 933 q 583 936 588 936 q 568 938 578 936 l 568 972 l 825 972 l 825 936 q 763 914 782 935 z "},"Y":{"ha":826,"x_min":14,"x_max":813,"o":"m 343 554 l 90 903 q 59 931 75 925 q 14 936 43 936 l 14 972 l 156 972 l 156 938 q 140 938 147 938 q 128 935 132 938 q 124 927 124 933 q 129 911 124 921 l 381 563 l 585 904 q 591 920 590 914 q 590 930 592 926 q 581 935 588 933 q 569 937 574 936 q 556 938 565 938 l 556 972 l 813 972 l 813 936 q 750 914 769 935 l 485 472 l 485 82 q 556 36 490 36 l 556 0 l 272 0 l 272 35 q 343 82 336 35 l 343 554 z "},"Ý":{"ha":826,"x_min":14,"x_max":813,"o":"m 343 554 l 90 903 q 59 931 75 925 q 14 936 43 936 l 14 972 l 156 972 l 156 938 q 140 938 147 938 q 128 935 132 938 q 124 927 124 933 q 129 911 124 921 l 381 563 l 585 904 q 591 920 590 914 q 590 930 592 926 q 581 935 588 933 q 569 937 574 936 q 556 938 565 938 l 556 972 l 813 972 l 813 936 q 750 914 769 935 l 485 472 l 485 82 q 556 36 490 36 l 556 0 l 272 0 l 272 35 q 343 82 336 35 l 343 554 z "},"Ÿ":{"ha":826,"x_min":14,"x_max":813,"o":"m 343 554 l 90 903 q 59 931 75 925 q 14 936 43 936 l 14 972 l 156 972 l 156 938 q 140 938 147 938 q 128 935 132 938 q 124 927 124 933 q 129 911 124 921 l 381 563 l 585 904 q 591 920 590 914 q 590 930 592 926 q 581 935 588 933 q 569 937 574 936 q 556 938 565 938 l 556 972 l 813 972 l 813 936 q 750 914 769 935 l 485 472 l 485 82 q 556 36 490 36 l 556 0 l 272 0 l 272 35 q 343 82 336 35 l 343 554 z "},"Z":{"ha":800,"x_min":28,"x_max":771,"o":"m 771 0 l 28 0 l 28 35 l 603 936 l 110 936 q 63 865 63 931 l 28 865 l 28 972 l 771 972 l 771 938 l 196 36 l 689 36 q 726 58 717 39 q 735 107 735 76 l 771 107 l 771 0 z "},"[":{"ha":415,"x_min":63,"x_max":346,"o":"m 204 913 l 204 -58 l 346 -58 l 346 -94 l 63 -94 l 63 949 l 346 949 l 346 913 l 204 913 z "},"\\":{"ha":403,"x_min":42,"x_max":361,"o":"m 42 971 l 185 971 l 360 0 l 217 0 l 42 971 z "},"]":{"ha":415,"x_min":69,"x_max":353,"o":"m 211 -58 l 211 913 l 69 913 l 69 949 l 353 949 l 353 -94 l 69 -94 l 69 -58 l 211 -58 z "},"^":{"ha":329,"x_min":35,"x_max":293,"o":"m 292 665 l 254 665 l 164 869 l 74 665 l 36 665 l 144 913 l 183 913 l 292 665 z "},"_":{"ha":515,"x_min":63,"x_max":453,"o":"m 451 -58 l 63 -58 l 63 -24 l 451 -24 l 451 -58 z "},"`":{"ha":225,"x_min":33,"x_max":190,"o":"m 33 904 l 67 922 l 190 708 l 174 699 l 33 904 z "},"a":{"ha":675,"x_min":28,"x_max":654,"o":"m 583 78 q 653 35 590 35 l 653 0 l 506 0 q 460 19 479 0 q 440 65 440 39 l 440 67 q 269 0 369 0 q 99 66 169 0 q 28 226 28 132 q 99 385 28 319 q 269 451 169 451 q 440 385 369 451 q 441 419 440 386 q 441 470 442 453 q 439 523 440 488 q 433 581 438 558 q 423 628 429 603 q 405 669 417 654 q 379 688 393 683 q 293 642 339 700 q 214 481 247 583 l 74 561 q 172 681 111 636 q 305 725 233 725 q 429 694 376 725 q 510 611 482 663 q 558 492 539 560 q 579 353 576 425 q 585 210 582 281 q 583 78 588 139 m 361 68 q 387 90 361 68 q 432 190 413 113 q 428 332 451 267 q 353 412 406 397 q 249 383 300 426 q 178 261 197 339 q 181 119 158 183 q 257 39 204 54 q 361 68 310 24 z "},"b":{"ha":681,"x_min":26,"x_max":653,"o":"m 508 574 q 502 624 508 574 q 449 688 496 674 q 347 622 403 703 q 261 415 292 542 q 242 188 231 288 q 301 73 254 88 q 403 139 349 58 q 489 347 458 219 q 508 574 519 474 m 175 972 q 221 953 201 972 q 240 907 240 933 l 240 619 q 411 725 311 725 q 582 619 511 725 q 653 363 653 513 q 582 106 653 213 q 411 0 511 0 q 240 107 311 0 l 240 65 q 221 19 240 39 q 175 0 201 0 l 28 0 l 28 36 q 99 82 92 36 l 99 890 q 28 938 92 938 l 28 972 l 175 972 z "},"c":{"ha":588,"x_min":26,"x_max":560,"o":"m 304 725 q 458 665 389 725 q 560 506 528 604 l 436 433 q 431 606 447 535 q 378 688 415 676 q 276 618 331 703 q 191 399 221 533 q 173 158 161 264 q 231 38 185 53 q 327 99 275 24 q 411 296 379 174 l 557 213 q 456 58 524 117 q 306 0 388 0 q 109 106 190 0 q 28 363 28 213 q 109 619 28 513 q 304 725 190 725 z "},"d":{"ha":681,"x_min":28,"x_max":653,"o":"m 333 622 q 306 663 333 622 q 231 688 278 703 q 173 574 185 674 q 191 347 161 474 q 276 139 221 219 q 378 73 331 58 q 437 188 425 88 q 419 415 449 288 q 333 622 389 542 m 517 972 q 563 953 543 972 q 582 907 582 933 l 582 82 q 653 36 588 36 l 653 0 l 506 0 q 460 19 479 0 q 440 65 440 39 l 440 107 q 269 0 369 0 q 99 106 169 0 q 28 363 28 213 q 99 619 28 513 q 269 725 169 725 q 440 619 369 725 l 440 890 q 369 938 435 938 l 369 972 l 517 972 z "},"e":{"ha":589,"x_min":26,"x_max":561,"o":"m 178 325 l 440 476 q 427 620 443 563 q 378 688 411 678 q 276 618 331 703 q 190 399 221 533 q 178 325 182 363 m 109 106 q 68 159 109 106 q 28 363 28 213 q 109 619 28 513 q 304 725 190 725 q 458 665 389 725 q 560 506 528 604 l 172 281 q 180 116 164 183 q 231 38 196 49 q 327 99 275 24 q 411 296 379 174 l 551 215 l 557 213 q 456 58 524 117 q 306 0 388 0 q 109 106 190 0 z "},"f":{"ha":454,"x_min":28,"x_max":447,"o":"m 285 972 q 379 944 336 972 q 446 868 422 915 l 306 788 q 307 936 328 928 q 268 854 292 943 q 244 725 244 765 l 321 725 l 321 690 l 244 690 l 244 82 q 315 35 251 35 l 315 0 l 35 0 l 35 36 q 103 72 93 36 l 103 690 l 28 690 l 28 725 l 103 725 l 103 776 q 156 915 103 857 q 285 972 210 972 z "},"g":{"ha":701,"x_min":33,"x_max":685,"o":"m 668 796 q 644 719 683 769 q 528 617 604 668 q 589 433 589 536 q 508 227 589 313 q 313 142 426 142 q 278 139 313 142 q 210 124 244 136 q 176 89 176 111 q 216 51 176 67 q 313 35 256 35 q 508 -6 426 35 q 589 -106 589 -47 q 508 -206 589 -164 q 312 -247 426 -247 q 116 -206 197 -247 q 35 -106 35 -164 q 69 -37 35 -68 q 164 14 104 -6 q 69 45 104 25 q 35 89 35 65 q 78 137 35 115 q 194 168 122 158 q 78 276 122 204 q 35 433 35 347 q 116 640 35 554 q 313 725 197 725 q 503 644 422 725 q 546 725 563 696 l 668 796 m 238 -11 q 214 -21 238 -11 q 179 -72 190 -31 q 199 -152 168 -112 q 284 -206 229 -192 q 386 -201 339 -219 q 444 -140 433 -182 q 425 -59 456 -99 q 340 -6 394 -19 q 238 -11 285 8 m 353 228 q 380 260 353 228 q 433 397 407 292 q 441 588 458 503 q 374 688 424 672 q 270 639 324 703 q 191 469 217 575 q 183 279 165 364 q 250 179 200 194 q 353 228 300 164 z "},"h":{"ha":744,"x_min":28,"x_max":724,"o":"m 175 972 q 221 953 201 972 q 240 907 240 933 l 240 619 q 411 725 311 725 q 582 619 511 725 q 653 363 653 513 l 653 82 q 724 36 658 36 l 724 0 l 440 0 l 440 36 q 511 82 506 36 l 511 363 q 510 446 511 417 q 508 517 510 475 q 503 583 507 560 q 492 632 499 607 q 475 670 486 657 q 449 688 464 683 q 351 638 401 703 q 270 490 300 572 q 240 363 240 408 l 240 82 q 311 36 246 36 l 311 0 l 28 0 l 28 35 q 99 82 92 35 l 99 890 q 28 938 92 938 l 28 972 l 175 972 z "},"i":{"ha":325,"x_min":19,"x_max":304,"o":"m 113 951 q 123 962 113 951 q 163 972 133 972 q 213 951 192 972 q 233 901 233 931 q 213 851 233 872 q 163 831 192 831 q 113 851 133 831 q 92 901 92 872 q 113 951 92 931 m 168 725 q 214 706 194 725 q 233 660 233 688 l 233 82 q 304 36 239 36 l 304 0 l 21 0 l 21 35 q 92 82 85 35 l 92 644 q 21 690 85 690 l 21 725 l 168 725 z "},"j":{"ha":319,"x_min":-7,"x_max":271,"o":"m 150 951 q 160 962 150 951 q 200 972 171 972 q 250 951 229 972 q 271 901 271 931 q 250 851 271 872 q 200 831 229 831 q 150 851 171 831 q 129 901 129 872 q 150 951 129 931 m 206 725 q 251 706 232 725 q 271 660 271 688 l 271 -106 q 190 -206 271 -164 q -7 -247 108 -247 l -7 -211 q 129 -93 126 -212 l 129 644 q 58 690 122 690 l 58 725 l 206 725 z "},"k":{"ha":717,"x_min":28,"x_max":689,"o":"m 175 972 q 221 953 201 972 q 240 907 240 933 l 240 385 l 540 664 q 554 680 551 674 q 553 688 557 686 q 545 690 550 689 q 536 690 540 690 l 536 725 l 688 725 l 688 690 q 579 657 617 690 l 301 399 l 581 82 q 633 49 599 63 q 688 36 667 36 l 688 0 l 397 0 l 397 36 q 410 37 406 36 q 419 40 414 38 q 422 47 424 42 q 413 63 421 53 l 240 258 l 240 82 q 311 36 246 36 l 311 0 l 28 0 l 28 35 q 99 82 92 35 l 99 890 q 28 938 92 938 l 28 972 l 175 972 z "},"l":{"ha":332,"x_min":28,"x_max":311,"o":"m 175 972 q 221 953 201 972 q 240 907 240 933 l 240 82 q 311 36 246 36 l 311 0 l 28 0 l 28 35 q 99 82 92 35 l 99 890 q 28 938 92 938 l 28 972 l 175 972 z "},"m":{"ha":1157,"x_min":28,"x_max":1136,"o":"m 175 725 q 221 706 201 725 q 239 660 240 688 l 239 619 q 411 725 310 725 q 530 678 475 725 q 617 551 585 632 q 704 678 650 632 q 824 725 758 725 q 994 619 924 725 q 1065 363 1065 513 l 1065 82 q 1136 36 1071 36 l 1136 0 l 853 0 l 853 36 q 924 82 918 36 l 924 363 q 923 446 924 417 q 921 517 922 475 q 915 583 919 560 q 905 632 911 607 q 888 670 899 657 q 861 688 876 683 q 763 638 814 703 q 683 490 713 572 q 653 363 653 408 l 653 82 q 724 36 658 36 l 724 0 l 440 0 l 440 36 q 511 82 506 36 l 511 363 q 510 446 511 417 q 508 517 510 475 q 503 583 507 560 q 492 632 499 607 q 475 670 486 657 q 449 688 464 683 q 351 638 401 703 q 270 490 300 572 q 240 363 240 408 l 240 82 q 311 36 246 36 l 311 0 l 28 0 l 28 35 q 99 82 92 35 l 99 644 q 28 690 92 690 l 28 725 l 175 725 z "},"n":{"ha":744,"x_min":28,"x_max":724,"o":"m 175 725 q 221 706 201 725 q 240 660 240 688 l 240 619 q 411 725 311 725 q 582 619 511 725 q 653 363 653 513 l 653 82 q 724 36 658 36 l 724 0 l 440 0 l 440 36 q 511 82 506 36 l 511 363 q 510 446 511 417 q 508 517 510 475 q 503 583 507 560 q 492 632 499 607 q 475 670 486 657 q 449 688 464 683 q 351 638 401 703 q 270 490 300 572 q 240 363 240 408 l 240 82 q 311 36 246 36 l 311 0 l 28 0 l 28 35 q 99 82 92 35 l 99 644 q 28 690 92 690 l 28 725 l 175 725 z "},"o":{"ha":611,"x_min":28,"x_max":583,"o":"m 109 619 q 150 672 109 619 q 305 725 190 725 q 501 619 419 725 q 582 363 582 513 q 501 106 582 213 q 305 0 419 0 q 109 106 190 0 q 28 363 28 213 q 109 619 28 513 m 333 107 q 361 149 333 107 q 419 326 389 192 q 437 567 449 461 q 378 688 425 674 q 276 618 332 703 q 191 399 221 533 q 173 158 161 264 q 231 38 185 53 q 333 107 278 22 z "},"p":{"ha":681,"x_min":28,"x_max":653,"o":"m 508 574 q 502 624 508 574 q 449 688 496 674 q 347 622 401 703 q 261 415 292 542 q 242 188 231 288 q 301 73 254 88 q 404 139 349 58 q 490 347 460 219 q 508 574 519 474 m 175 725 q 221 706 201 725 q 240 660 240 688 l 240 619 q 411 725 311 725 q 582 619 511 725 q 653 363 653 513 q 582 106 653 213 q 411 0 511 0 q 240 107 311 0 l 240 -165 q 311 -211 246 -211 l 311 -247 l 28 -247 l 28 -211 q 99 -165 92 -211 l 99 644 q 28 690 92 690 l 28 725 l 175 725 z "},"q":{"ha":681,"x_min":28,"x_max":653,"o":"m 333 622 q 306 663 333 622 q 231 688 278 703 q 172 574 185 674 q 190 347 160 474 q 276 139 221 219 q 378 73 331 58 q 437 188 425 88 q 419 415 449 288 q 333 622 389 542 m 440 660 q 460 706 440 688 q 506 725 479 725 l 653 725 l 653 690 q 582 644 588 690 l 582 -165 q 653 -211 588 -211 l 653 -247 l 369 -247 l 369 -211 q 440 -165 435 -211 l 440 107 q 269 0 369 0 q 99 106 169 0 q 28 363 28 213 q 99 619 28 513 q 269 725 169 725 q 440 619 369 725 l 440 660 z "},"r":{"ha":665,"x_min":26,"x_max":638,"o":"m 240 660 l 240 619 q 411 725 311 725 q 549 660 488 725 q 636 493 610 596 l 503 415 q 504 599 519 521 q 449 688 489 676 q 347 622 401 703 q 261 414 292 542 q 240 254 242 331 l 240 82 q 311 35 246 35 l 311 0 l 28 0 l 28 36 q 99 82 92 36 l 99 644 q 28 690 92 690 l 28 725 l 175 725 q 221 706 201 725 q 240 660 240 688 z "},"s":{"ha":597,"x_min":21,"x_max":576,"o":"m 575 217 q 494 63 575 126 q 299 0 413 0 q 172 24 231 0 q 75 88 114 47 l 197 158 q 240 66 211 97 q 301 35 268 35 q 363 53 333 36 q 413 100 393 69 q 433 163 433 131 q 412 226 435 200 q 353 266 389 251 q 272 292 317 281 q 184 319 228 304 q 103 356 140 335 q 44 415 67 376 q 21 508 21 454 q 102 662 21 599 q 297 725 183 725 q 434 697 371 725 q 533 622 497 669 l 411 551 q 376 649 407 614 q 308 689 346 685 q 233 676 271 693 q 178 628 196 660 q 168 531 151 582 q 235 451 185 479 q 291 433 254 442 q 363 420 328 425 q 438 402 399 415 q 507 369 478 389 q 556 310 536 350 q 575 217 575 271 z "},"t":{"ha":369,"x_min":13,"x_max":363,"o":"m 226 907 l 226 725 l 297 725 l 297 690 l 226 690 l 226 154 q 361 35 229 33 l 361 0 q 166 42 247 0 q 85 142 85 83 l 85 690 l 14 690 l 14 725 l 85 725 l 85 890 q 14 938 78 938 l 14 972 l 161 972 q 207 953 188 972 q 226 907 226 933 z "},"u":{"ha":751,"x_min":28,"x_max":724,"o":"m 576 0 q 531 19 550 0 q 511 65 511 39 l 511 107 q 340 0 440 0 q 169 106 240 0 q 99 363 99 213 l 99 644 q 28 690 92 690 l 28 725 l 311 725 l 311 690 q 240 644 246 690 l 240 363 q 240 280 240 310 q 242 208 240 250 q 249 142 244 165 q 259 93 253 118 q 276 55 265 68 q 301 38 288 42 q 401 89 350 24 q 481 236 451 154 q 511 363 511 318 l 511 644 q 440 690 506 690 l 440 725 l 724 725 l 724 690 q 653 644 658 690 l 653 82 q 724 36 658 36 l 724 0 l 576 0 z "},"v":{"ha":703,"x_min":21,"x_max":682,"o":"m 81 654 q 21 689 69 683 l 21 725 l 165 725 l 165 690 q 149 690 154 690 q 135 688 144 689 q 124 685 126 688 q 117 678 122 682 q 115 667 113 674 q 117 650 117 660 l 333 35 l 451 646 q 440 681 456 672 q 396 690 425 690 l 396 725 l 681 725 l 681 690 q 596 651 607 690 l 469 0 l 311 0 q 81 654 208 294 z "},"w":{"ha":1224,"x_min":19,"x_max":1203,"o":"m 833 0 q 600 664 757 215 q 538 344 581 568 q 471 0 494 121 l 313 0 q 198 326 275 108 q 83 653 121 544 q 21 689 71 682 l 21 725 l 165 725 l 165 690 q 137 689 146 690 q 120 680 128 688 q 115 657 113 672 l 335 35 l 468 725 l 611 725 l 854 35 l 974 651 q 960 683 975 675 q 918 690 946 690 l 918 725 l 1203 725 l 1203 690 q 1117 650 1128 690 q 1054 325 1096 542 q 992 0 1013 108 l 833 0 z "},"x":{"ha":667,"x_min":21,"x_max":646,"o":"m 519 68 l 369 281 l 261 82 q 251 51 249 61 q 262 38 254 40 q 288 36 269 36 l 288 0 l 21 0 l 21 39 q 99 79 81 50 l 278 410 q 106 656 106 654 q 21 690 79 689 l 21 725 l 169 725 l 169 690 q 153 690 158 690 q 141 688 147 689 q 135 682 135 686 q 138 672 136 678 l 297 444 l 406 644 q 415 674 418 664 q 405 688 413 685 q 379 690 397 690 l 379 725 l 646 725 l 646 686 q 568 646 586 676 l 389 315 q 561 71 561 71 q 646 35 588 36 l 646 0 l 497 0 l 497 36 q 517 36 511 36 q 528 40 524 36 q 531 50 533 43 q 519 68 528 57 z "},"y":{"ha":744,"x_min":19,"x_max":717,"o":"m 646 -106 q 565 -206 646 -164 q 368 -247 483 -247 q 185 -211 264 -247 l 267 -164 q 340 -206 296 -194 q 443 -201 396 -219 q 501 -140 490 -182 q 506 -78 506 -124 q 506 31 507 -32 q 504 107 504 94 q 333 0 433 0 q 163 106 233 0 q 92 363 92 213 l 92 644 q 21 690 85 690 l 21 725 l 304 725 l 304 690 q 233 644 239 690 l 233 363 q 233 280 233 310 q 235 208 233 250 q 242 142 238 165 q 252 93 246 118 q 269 55 258 68 q 294 38 281 42 q 393 89 342 24 q 474 236 444 154 q 504 363 504 318 l 504 644 q 433 690 499 690 l 433 725 l 717 725 l 717 690 q 646 644 651 690 l 646 -106 z "},"ý":{"ha":744,"x_min":19,"x_max":717,"o":"m 646 -106 q 565 -206 646 -164 q 368 -247 483 -247 q 185 -211 264 -247 l 267 -164 q 340 -206 296 -194 q 443 -201 396 -219 q 501 -140 490 -182 q 506 -78 506 -124 q 506 31 507 -32 q 504 107 504 94 q 333 0 433 0 q 163 106 233 0 q 92 363 92 213 l 92 644 q 21 690 85 690 l 21 725 l 304 725 l 304 690 q 233 644 239 690 l 233 363 q 233 280 233 310 q 235 208 233 250 q 242 142 238 165 q 252 93 246 118 q 269 55 258 68 q 294 38 281 42 q 393 89 342 24 q 474 236 444 154 q 504 363 504 318 l 504 644 q 433 690 499 690 l 433 725 l 717 725 l 717 690 q 646 644 651 690 l 646 -106 z "},"ÿ":{"ha":744,"x_min":19,"x_max":717,"o":"m 646 -106 q 565 -206 646 -164 q 368 -247 483 -247 q 185 -211 264 -247 l 267 -164 q 340 -206 296 -194 q 443 -201 396 -219 q 501 -140 490 -182 q 506 -78 506 -124 q 506 31 507 -32 q 504 107 504 94 q 333 0 433 0 q 163 106 233 0 q 92 363 92 213 l 92 644 q 21 690 85 690 l 21 725 l 304 725 l 304 690 q 233 644 239 690 l 233 363 q 233 280 233 310 q 235 208 233 250 q 242 142 238 165 q 252 93 246 118 q 269 55 258 68 q 294 38 281 42 q 393 89 342 24 q 474 236 444 154 q 504 363 504 318 l 504 644 q 433 690 499 690 l 433 725 l 717 725 l 717 690 q 646 644 651 690 l 646 -106 z "},"z":{"ha":597,"x_min":19,"x_max":576,"o":"m 575 106 l 575 0 l 21 0 l 21 36 l 411 690 l 103 690 q 56 619 56 683 l 21 619 l 21 725 l 575 725 l 575 690 l 185 35 l 493 35 q 540 106 540 42 l 575 106 z "},"{":{"ha":503,"x_min":28,"x_max":433,"o":"m 432 -58 l 433 -58 l 433 -94 l 290 -94 q 192 -53 233 -94 q 150 46 150 -12 l 150 357 l 28 428 l 150 497 l 150 808 q 192 908 150 867 q 290 949 233 949 l 433 949 l 433 914 l 432 914 q 333 872 374 914 q 292 772 292 831 l 292 549 q 222 428 292 468 l 221 428 l 222 426 q 292 306 292 386 l 292 82 q 333 -17 292 24 q 432 -58 374 -58 z "},"|":{"ha":267,"x_min":63,"x_max":204,"o":"m 204 -94 l 63 -94 l 63 949 l 204 949 l 204 -94 z "},"}":{"ha":503,"x_min":69,"x_max":475,"o":"m 71 -58 q 170 -17 129 -58 q 211 82 211 24 l 211 306 q 281 426 211 386 l 282 428 l 281 428 q 211 549 211 468 l 211 772 q 170 872 211 831 q 71 914 129 914 l 69 914 l 69 949 l 213 949 q 311 908 269 949 q 353 808 353 867 l 353 497 l 475 428 l 353 357 l 353 46 q 311 -53 353 -12 q 213 -94 269 -94 l 69 -94 l 69 -58 l 71 -58 z "},"~":{"ha":307,"x_min":31,"x_max":276,"o":"m 140 414 q 121 424 132 421 q 99 424 110 428 q 78 413 86 421 q 67 394 71 404 l 31 404 q 51 440 36 425 q 88 461 67 456 q 129 461 108 467 q 167 440 151 456 q 186 429 175 432 q 208 431 197 426 q 228 442 219 433 q 239 460 236 450 l 276 450 q 254 414 269 429 q 218 393 239 399 q 176 393 197 388 q 140 414 156 399 z "}," ":{"ha":497,"x_min":0,"x_max":0,"o":""},"­":{"ha":0,"x_min":0,"x_max":0,"o":""},"À":{"ha":897,"x_min":-11,"x_max":910,"o":"m 336 936 l 336 971 l 568 972 l 815 81 q 908 35 828 35 l 908 -1 l 621 -1 l 621 35 q 638 35 632 35 q 653 37 643 35 q 665 44 663 39 q 671 56 667 49 q 669 76 675 64 l 571 432 l 233 432 l 92 75 q 88 55 85 63 q 92 43 90 47 q 102 37 93 39 q 116 35 111 35 q 133 35 121 35 l 133 -1 l -11 -1 l -11 35 q 29 41 17 35 q 53 72 42 47 l 379 899 q 382 917 385 910 q 378 928 379 924 q 369 933 376 932 q 356 935 361 935 q 342 936 351 936 q 336 936 338 936 m 371 1213 l 403 1232 l 528 1017 l 511 1007 l 371 1213 m 561 467 l 431 936 l 247 467 l 561 467 z "},"Á":{"ha":897,"x_min":-11,"x_max":910,"o":"m 336 936 l 336 971 l 568 972 l 815 81 q 908 35 828 35 l 908 -1 l 621 -1 l 621 35 q 638 35 632 35 q 653 37 643 35 q 665 44 663 39 q 671 56 667 49 q 669 76 675 64 l 571 432 l 233 432 l 92 75 q 88 55 85 63 q 92 43 90 47 q 102 37 93 39 q 116 35 111 35 q 133 35 121 35 l 133 -1 l -11 -1 l -11 35 q 29 41 17 35 q 53 72 42 47 l 379 899 q 382 917 385 910 q 378 928 379 924 q 369 933 376 932 q 356 935 361 935 q 342 936 351 936 q 336 936 338 936 m 494 1232 l 528 1213 l 388 1007 l 371 1017 l 494 1232 m 561 467 l 431 936 l 247 467 l 561 467 z "},"Â":{"ha":897,"x_min":-11,"x_max":910,"o":"m 336 936 l 336 971 l 568 972 l 815 81 q 908 35 828 35 l 908 -1 l 621 -1 l 621 35 q 638 35 632 35 q 653 37 643 35 q 665 44 663 39 q 671 56 667 49 q 669 76 675 64 l 571 432 l 233 432 l 92 75 q 88 55 85 63 q 92 43 90 47 q 102 37 93 39 q 116 35 111 35 q 133 35 121 35 l 133 -1 l -11 -1 l -11 35 q 29 41 17 35 q 53 72 42 47 l 379 899 q 382 917 385 910 q 378 928 379 924 q 369 933 376 932 q 356 935 361 935 q 342 936 351 936 q 336 936 338 936 m 415 1232 l 482 1232 l 606 1017 l 589 1007 l 449 1213 l 308 1007 l 292 1017 l 415 1232 m 561 467 l 431 936 l 247 467 l 561 467 z "},"Ã":{"ha":897,"x_min":-11,"x_max":910,"o":"m 336 936 l 336 971 l 568 972 l 815 81 q 908 35 828 35 l 908 -1 l 621 -1 l 621 35 q 638 35 632 35 q 653 37 643 35 q 665 44 663 39 q 671 56 667 49 q 669 76 675 64 l 571 432 l 233 432 l 92 75 q 88 55 85 63 q 92 43 90 47 q 102 37 93 39 q 116 35 111 35 q 133 35 121 35 l 133 -1 l -11 -1 l -11 35 q 29 41 17 35 q 53 72 42 47 l 379 899 q 382 917 385 910 q 378 928 379 924 q 369 933 376 932 q 356 935 361 935 q 342 936 351 936 q 336 936 338 936 m 472 1010 q 436 1031 451 1015 q 416 1042 428 1039 q 393 1042 404 1044 q 374 1031 382 1039 q 363 1011 365 1022 l 326 1021 q 347 1057 332 1042 q 383 1078 363 1072 q 425 1078 404 1083 q 463 1058 446 1072 q 482 1047 471 1050 q 504 1047 493 1044 q 524 1058 515 1050 q 535 1078 532 1067 l 571 1067 q 550 1031 565 1047 q 514 1010 535 1015 q 472 1010 493 1004 m 561 467 l 431 936 l 247 467 l 561 467 z "},"Ä":{"ha":897,"x_min":-11,"x_max":910,"o":"m 336 971 l 568 972 l 815 81 q 908 35 828 35 l 908 -1 l 621 -1 l 621 35 q 638 35 632 35 q 653 37 643 35 q 665 44 663 39 q 671 56 667 49 q 669 76 675 64 l 571 432 l 233 432 l 92 75 q 88 55 85 63 q 92 43 90 47 q 102 37 93 39 q 116 35 111 35 q 133 35 121 35 l 133 -1 l -11 -1 l -11 35 q 29 41 17 35 q 53 72 42 47 l 379 899 q 382 917 385 910 q 378 928 379 924 q 369 933 376 932 q 356 935 361 935 q 342 936 351 936 q 336 936 338 936 l 336 971 m 488 1028 q 477 1038 488 1028 q 467 1078 467 1049 q 488 1128 467 1107 q 538 1149 508 1149 q 588 1128 567 1149 q 608 1078 608 1107 q 588 1028 608 1049 q 538 1007 567 1007 q 488 1028 508 1007 m 310 1028 q 300 1038 310 1028 q 290 1078 290 1049 q 310 1128 290 1107 q 360 1149 331 1149 q 410 1128 390 1149 q 431 1078 431 1107 q 410 1028 431 1049 q 360 1007 390 1007 q 310 1028 331 1007 m 561 467 l 431 936 l 247 467 l 561 467 z "},"Å":{"ha":897,"x_min":-11,"x_max":910,"o":"m 336 971 l 568 972 l 815 81 q 908 35 828 35 l 908 -1 l 621 -1 l 621 35 q 638 35 632 35 q 653 37 643 35 q 665 44 663 39 q 671 56 667 49 q 669 76 675 64 l 571 432 l 233 432 l 92 75 q 88 55 85 63 q 92 43 90 47 q 102 37 93 39 q 116 35 111 35 q 133 35 121 35 l 133 -1 l -11 -1 l -11 35 q 29 41 17 35 q 53 72 42 47 l 379 899 q 382 917 385 910 q 378 928 379 924 q 369 933 376 932 q 356 935 361 935 q 342 936 351 936 q 336 936 338 936 l 336 971 m 489 1118 q 481 1126 489 1118 q 449 1135 472 1135 q 408 1118 425 1135 q 392 1078 392 1101 q 408 1038 392 1054 q 449 1021 425 1021 q 489 1038 472 1021 q 506 1078 506 1054 q 489 1118 506 1101 m 499 1028 q 488 1017 499 1028 q 449 1007 478 1007 q 399 1028 419 1007 q 378 1078 378 1049 q 399 1128 378 1107 q 449 1149 419 1149 q 499 1128 478 1149 q 519 1078 519 1107 q 499 1028 519 1049 m 561 467 l 431 936 l 247 467 l 561 467 z "},"Æ":{"ha":1322,"x_min":-11,"x_max":1311,"o":"m 568 971 l 1311 971 l 1311 865 l 1275 865 q 1229 936 1275 929 l 710 936 l 710 574 l 1088 574 q 1133 644 1133 579 l 1169 644 l 1169 468 l 1133 468 q 1088 539 1133 532 l 710 539 l 710 35 l 1229 35 q 1275 106 1275 40 l 1311 106 l 1311 0 l 710 0 l 710 -1 l 621 -1 l 568 -1 l 568 432 l 233 432 l 92 75 q 88 55 85 63 q 92 43 90 47 q 102 37 93 39 q 116 35 111 35 q 133 35 121 35 l 133 -1 l -11 -1 l -11 35 q 29 41 17 35 q 53 72 42 47 l 379 899 q 382 917 385 910 q 378 928 379 924 q 369 933 376 932 q 356 935 361 935 q 342 936 351 936 q 336 936 338 936 l 336 971 l 568 972 l 568 971 m 561 467 l 431 936 l 247 467 l 561 467 z "},"Ç":{"ha":942,"x_min":22,"x_max":931,"o":"m 476 -176 q 426 -156 447 -176 q 406 -106 406 -135 q 426 -56 406 -76 q 476 -35 447 -35 q 544 -90 533 -35 q 517 -186 556 -146 q 428 -208 482 -224 q 476 -176 451 -203 m 508 0 q 265 65 376 0 q 88 242 153 131 q 22 486 22 354 q 88 730 22 618 q 265 907 153 842 q 508 972 376 972 q 753 906 642 972 q 929 729 865 840 l 792 650 q 710 778 761 717 q 590 887 658 840 q 449 938 522 933 q 300 899 376 943 q 167 649 188 822 q 233 304 147 475 q 335 158 275 219 q 460 65 396 96 q 592 35 525 35 q 717 74 660 36 q 844 292 818 142 l 929 243 q 753 66 865 132 q 508 0 642 0 z "},"È":{"ha":849,"x_min":22,"x_max":836,"o":"m 350 1213 l 383 1232 l 507 1017 l 490 1007 l 350 1213 m 22 972 l 836 972 l 836 865 l 800 865 q 754 936 800 931 l 235 936 l 235 575 l 613 575 q 658 644 658 581 l 694 644 l 694 468 l 658 468 q 613 539 658 533 l 235 539 l 235 35 l 754 35 q 800 106 800 42 l 836 106 l 836 0 l 22 0 l 22 35 q 93 81 86 35 l 93 890 q 22 936 86 936 l 22 972 z "},"É":{"ha":847,"x_min":22,"x_max":836,"o":"m 474 1232 l 507 1213 l 367 1007 l 350 1017 l 474 1232 m 22 972 l 836 972 l 836 865 l 800 865 q 754 936 800 931 l 235 936 l 235 575 l 613 575 q 649 597 640 578 q 658 644 658 615 l 694 644 l 694 468 l 658 468 q 613 539 658 533 l 235 539 l 235 35 l 754 35 q 800 106 800 42 l 836 106 l 836 0 l 22 0 l 22 35 q 93 81 86 35 l 93 890 q 22 936 86 936 l 22 972 z "},"Ê":{"ha":849,"x_min":21,"x_max":836,"o":"m 396 1232 l 463 1232 l 586 1017 l 569 1007 l 429 1213 l 289 1007 l 272 1017 l 396 1232 m 22 972 l 836 972 l 836 865 l 800 865 q 754 936 800 931 l 235 936 l 235 575 l 613 575 q 658 644 658 581 l 694 644 l 694 468 l 658 468 q 613 539 658 533 l 235 539 l 235 35 l 754 35 q 800 106 800 42 l 836 106 l 836 0 l 22 0 l 22 35 q 93 81 86 35 l 93 890 q 22 936 86 936 l 22 972 z "},"Ë":{"ha":849,"x_min":22,"x_max":836,"o":"m 467 1028 q 457 1038 467 1028 q 447 1078 447 1049 q 467 1128 447 1107 q 517 1149 488 1149 q 568 1128 547 1149 q 589 1078 589 1107 q 568 1028 589 1049 q 517 1007 547 1007 q 467 1028 488 1007 m 290 1028 q 280 1038 290 1028 q 269 1078 269 1049 q 290 1128 269 1107 q 340 1149 311 1149 q 390 1128 369 1149 q 411 1078 411 1107 q 390 1028 411 1049 q 340 1007 369 1007 q 290 1028 311 1007 m 22 972 l 836 972 l 836 865 l 800 865 q 754 936 800 931 l 235 936 l 235 575 l 613 575 q 658 644 658 581 l 694 644 l 694 468 l 658 468 q 613 539 658 533 l 235 539 l 235 35 l 754 35 q 800 106 800 42 l 836 106 l 836 0 l 22 0 l 22 35 q 93 81 86 35 l 93 890 q 22 936 86 936 l 22 972 z "},"Ì":{"ha":325,"x_min":21,"x_max":304,"o":"m 83 1213 l 117 1232 l 240 1017 l 224 1007 l 83 1213 m 21 972 l 304 972 l 304 938 q 233 892 239 938 l 233 82 q 304 36 239 36 l 304 0 l 21 0 l 21 36 q 92 82 85 36 l 92 892 q 21 938 85 938 l 21 972 z "},"Í":{"ha":325,"x_min":19,"x_max":304,"o":"m 208 1232 l 240 1213 l 100 1007 l 83 1017 l 208 1232 m 21 972 l 304 972 l 304 938 q 233 892 239 938 l 233 82 q 304 36 239 36 l 304 0 l 21 0 l 21 36 q 92 82 85 36 l 92 892 q 21 938 85 938 l 21 972 z "},"Î":{"ha":325,"x_min":6,"x_max":319,"o":"m 129 1232 l 194 1232 l 319 1017 l 303 1007 l 163 1213 l 22 1007 l 6 1017 l 129 1232 m 21 972 l 304 972 l 304 938 q 233 892 239 938 l 233 82 q 304 36 239 36 l 304 0 l 21 0 l 21 36 q 92 82 86 36 l 92 892 q 21 938 85 938 l 21 972 z "},"Ï":{"ha":328,"x_min":4,"x_max":324,"o":"m 201 1028 q 191 1038 201 1028 q 181 1078 181 1049 q 201 1128 181 1107 q 251 1149 222 1149 q 301 1128 281 1149 q 322 1078 322 1107 q 301 1028 322 1049 q 251 1007 281 1007 q 201 1028 222 1007 m 25 1028 q 15 1038 25 1028 q 4 1078 4 1049 q 25 1128 4 1107 q 75 1149 46 1149 q 125 1128 104 1149 q 146 1078 146 1107 q 125 1028 146 1049 q 75 1007 104 1007 q 25 1028 46 1007 m 22 972 l 306 972 l 306 938 q 235 892 240 938 l 235 82 q 306 36 240 36 l 306 0 l 22 0 l 22 36 q 93 82 86 36 l 93 892 q 22 938 86 938 l 22 972 z "},"Ñ":{"ha":926,"x_min":21,"x_max":906,"o":"m 450 1031 q 431 1042 442 1039 q 408 1042 419 1044 q 388 1031 396 1039 q 376 1011 381 1022 l 340 1021 q 361 1057 346 1042 q 397 1078 376 1072 q 439 1078 418 1083 q 476 1058 461 1072 q 496 1047 485 1050 q 518 1047 507 1044 q 538 1058 529 1050 q 549 1078 546 1067 l 586 1067 q 564 1031 579 1047 q 528 1010 549 1015 q 486 1010 507 1004 q 450 1031 465 1015 m 197 0 q 21 0 139 0 l 21 36 q 92 82 85 36 l 92 892 q 21 938 85 938 l 21 972 l 250 972 l 799 60 l 799 892 q 728 938 793 938 l 728 972 q 906 972 728 972 l 906 938 q 835 892 840 938 l 835 82 q 906 36 840 36 l 906 0 l 676 0 l 126 914 l 126 82 q 197 36 133 36 l 197 0 z "},"Ò":{"ha":1017,"x_min":22,"x_max":994,"o":"m 265 908 q 320 940 265 908 q 508 972 376 972 q 752 908 640 972 q 929 731 864 843 q 994 486 994 618 q 929 242 994 354 q 752 65 864 131 q 508 0 640 0 q 265 65 376 0 q 88 242 153 131 q 22 486 22 354 q 88 731 22 618 q 265 908 153 843 m 717 75 q 849 324 829 150 q 783 668 869 497 q 681 815 742 753 q 556 907 621 876 q 424 937 492 938 q 300 899 357 936 q 167 649 186 824 q 233 304 147 475 q 335 159 275 221 q 460 66 396 97 q 592 36 525 35 q 717 75 660 38 m 586 1017 l 571 1007 l 431 1213 l 463 1232 l 586 1017 z "},"Ó":{"ha":1017,"x_min":21,"x_max":994,"o":"m 586 1213 l 446 1007 l 431 1017 l 554 1232 l 586 1213 m 265 908 q 320 940 265 908 q 508 972 376 972 q 752 908 640 972 q 929 731 864 843 q 994 486 994 618 q 929 242 994 354 q 752 65 864 131 q 508 0 640 0 q 265 65 376 0 q 88 242 153 131 q 22 486 22 354 q 88 731 22 618 q 265 908 153 843 m 715 75 q 849 324 829 150 q 783 668 869 497 q 681 815 742 753 q 556 907 621 876 q 424 937 492 938 q 300 899 357 936 q 167 649 186 824 q 233 304 147 475 q 335 159 275 221 q 460 66 396 97 q 592 36 525 35 q 715 75 660 38 z "},"Ô":{"ha":1017,"x_min":21,"x_max":994,"o":"m 508 1213 l 368 1007 l 351 1017 l 475 1232 l 542 1232 l 665 1017 l 649 1007 l 508 1213 m 265 908 q 320 940 265 908 q 508 972 376 972 q 752 908 640 972 q 929 731 864 843 q 994 486 994 618 q 929 242 994 354 q 752 65 864 131 q 508 0 640 0 q 265 65 376 0 q 88 242 153 131 q 22 486 22 354 q 88 731 22 618 q 265 908 153 843 m 715 75 q 849 324 829 150 q 783 668 869 497 q 681 815 742 753 q 556 907 621 876 q 424 937 492 938 q 300 899 357 936 q 167 649 186 824 q 233 304 147 475 q 335 159 275 221 q 460 66 396 97 q 592 36 525 35 q 715 75 660 38 z "},"Õ":{"ha":1017,"x_min":22,"x_max":994,"o":"m 265 908 q 320 940 265 908 q 508 972 376 972 q 752 908 640 972 q 929 731 864 843 q 994 486 994 618 q 929 242 994 354 q 752 65 864 131 q 508 0 640 0 q 265 65 376 0 q 88 242 153 131 q 22 486 22 354 q 88 731 22 618 q 265 908 153 843 m 715 75 q 849 324 829 150 q 783 668 869 497 q 681 815 742 753 q 556 907 621 876 q 424 937 492 938 q 300 899 357 936 q 167 649 186 824 q 233 304 147 475 q 335 159 275 221 q 460 66 396 97 q 592 36 525 35 q 715 75 660 38 m 433 1031 q 422 1011 425 1022 l 386 1021 q 407 1057 392 1042 q 443 1078 422 1072 q 485 1078 464 1083 q 521 1058 506 1072 q 542 1047 529 1050 q 563 1047 551 1044 q 583 1058 575 1050 q 594 1078 592 1067 l 631 1067 q 610 1031 625 1046 q 574 1010 594 1015 q 532 1010 553 1004 q 494 1031 511 1015 q 476 1042 488 1039 q 453 1042 464 1044 q 433 1031 442 1038 z "},"Ö":{"ha":1017,"x_min":22,"x_max":994,"o":"m 647 1028 q 637 1017 647 1028 q 597 1007 626 1007 q 547 1028 568 1007 q 526 1078 526 1049 q 547 1128 526 1107 q 597 1149 568 1149 q 647 1128 626 1149 q 668 1078 668 1107 q 647 1028 668 1049 m 265 908 q 320 940 265 908 q 508 972 376 972 q 752 908 640 972 q 929 731 864 843 q 994 486 994 618 q 929 242 994 354 q 752 65 864 131 q 508 0 640 0 q 265 65 376 0 q 88 242 153 131 q 22 486 22 354 q 88 731 22 618 q 265 908 153 843 m 715 75 q 849 324 829 150 q 783 668 869 497 q 681 815 742 753 q 556 907 621 876 q 424 937 492 938 q 300 899 357 936 q 167 649 186 824 q 233 304 147 475 q 335 159 275 221 q 460 66 396 97 q 592 36 525 35 q 715 75 660 38 m 469 1028 q 459 1017 469 1028 q 419 1007 449 1007 q 369 1028 390 1007 q 349 1078 349 1049 q 369 1128 349 1107 q 419 1149 390 1149 q 469 1128 449 1149 q 490 1078 490 1107 q 469 1028 490 1049 z "},"Ø":{"ha":1017,"x_min":21,"x_max":994,"o":"m 767 899 q 933 723 871 832 q 994 486 994 614 q 929 242 994 354 q 752 65 864 131 q 508 0 640 0 q 281 57 388 0 l 249 0 l 207 0 l 250 75 q 84 249 146 140 q 22 486 22 358 q 88 730 22 618 q 265 907 153 842 q 508 972 376 972 q 736 915 629 972 l 768 972 l 808 972 l 767 899 m 233 304 q 313 183 267 238 l 679 817 q 489 930 590 907 q 300 899 388 953 q 167 649 186 824 q 233 304 147 475 m 715 74 q 849 324 829 150 q 783 668 869 497 q 704 789 749 736 l 338 156 q 528 42 426 65 q 715 74 629 19 z "},"Ù":{"ha":907,"x_min":11,"x_max":896,"o":"m 375 1213 l 408 1232 l 532 1017 l 515 1007 l 375 1213 m 11 972 l 294 972 l 294 936 q 224 890 229 936 l 224 265 q 291 103 224 171 q 453 35 358 35 q 616 103 549 35 q 683 265 683 171 l 683 890 q 613 936 676 936 l 613 972 l 896 972 l 896 936 q 825 890 831 936 l 825 371 q 716 109 825 218 q 453 0 607 0 q 191 109 300 0 q 82 371 82 218 l 82 890 q 11 936 75 936 l 11 972 z "},"Ú":{"ha":907,"x_min":10,"x_max":896,"o":"m 499 1232 l 532 1213 l 392 1007 l 375 1017 l 499 1232 m 11 972 l 294 972 l 294 936 q 224 890 229 936 l 224 265 q 291 103 224 171 q 453 35 358 35 q 616 103 549 35 q 683 265 683 171 l 683 890 q 613 936 676 936 l 613 972 l 896 972 l 896 936 q 825 890 831 936 l 825 371 q 716 109 825 218 q 453 0 607 0 q 191 109 300 0 q 82 371 82 218 l 82 890 q 11 936 75 936 l 11 972 z "},"Û":{"ha":907,"x_min":10,"x_max":896,"o":"m 421 1232 l 486 1232 l 610 1017 l 593 1007 l 453 1213 l 313 1007 l 297 1017 l 421 1232 m 11 972 l 294 972 l 294 936 q 224 890 229 936 l 224 265 q 291 103 224 171 q 453 35 358 35 q 616 103 549 35 q 683 265 683 171 l 683 890 q 613 936 676 936 l 613 972 l 896 972 l 896 936 q 825 890 831 936 l 825 371 q 716 109 825 218 q 453 0 607 0 q 191 109 300 0 q 82 371 82 218 l 82 890 q 11 936 75 936 l 11 972 z "},"Ü":{"ha":907,"x_min":11,"x_max":896,"o":"m 492 1028 q 481 1038 492 1028 q 471 1078 471 1049 q 492 1128 471 1107 q 542 1149 513 1149 q 592 1128 571 1149 q 613 1078 613 1107 q 592 1028 613 1049 q 542 1007 571 1007 q 492 1028 513 1007 m 315 1028 q 305 1038 315 1028 q 294 1078 294 1049 q 315 1128 294 1107 q 365 1149 335 1149 q 415 1128 394 1149 q 436 1078 436 1107 q 415 1028 436 1049 q 365 1007 394 1007 q 315 1028 335 1007 m 11 972 l 294 972 l 294 936 q 224 890 229 936 l 224 265 q 291 103 224 171 q 453 35 358 35 q 616 103 549 35 q 683 265 683 171 l 683 890 q 613 936 676 936 l 613 972 l 896 972 l 896 936 q 825 890 831 936 l 825 371 q 716 109 825 218 q 453 0 607 0 q 191 109 300 0 q 82 371 82 218 l 82 890 q 11 936 75 936 l 11 972 z "},"ß":{"ha":850,"x_min":15,"x_max":829,"o":"m 608 550 q 768 444 707 515 q 829 288 829 374 q 720 84 829 168 q 457 0 611 0 l 263 0 l 263 36 l 457 36 q 594 93 533 40 q 678 228 656 146 q 659 418 704 329 q 522 532 614 507 q 471 539 499 538 l 263 539 l 263 574 l 435 574 q 563 627 510 574 q 617 756 617 681 q 563 884 617 831 q 435 938 510 938 l 410 938 q 281 884 335 938 q 228 756 228 831 l 228 0 l 15 0 l 15 36 q 86 82 79 36 l 86 756 q 150 908 86 844 q 303 972 214 972 l 542 972 q 694 908 631 972 q 758 756 758 844 q 716 628 758 685 q 608 550 674 571 z "},"à":{"ha":658,"x_min":22,"x_max":650,"o":"m 415 769 l 399 760 l 258 964 l 290 983 l 415 769 m 579 78 q 649 35 586 35 l 649 0 l 501 0 q 456 19 475 0 q 436 65 436 39 l 436 67 q 265 0 365 0 q 94 66 165 0 q 24 226 24 132 q 94 385 24 319 q 265 451 165 451 q 436 385 365 451 q 437 419 436 386 q 437 470 438 453 q 435 523 436 488 q 429 581 433 558 q 419 628 425 603 q 401 668 413 653 q 375 688 389 683 q 289 641 335 700 q 210 481 243 582 l 69 561 q 168 681 107 636 q 301 725 229 725 q 425 694 372 725 q 506 611 478 663 q 553 492 535 560 q 575 353 572 425 q 581 210 578 281 q 579 78 583 139 m 357 68 q 383 90 357 68 q 428 190 408 113 q 424 332 447 267 q 349 412 401 397 q 244 383 296 426 q 174 261 193 339 q 177 119 154 183 q 253 39 200 54 q 357 68 306 24 z "},"á":{"ha":658,"x_min":24,"x_max":650,"o":"m 579 78 q 649 35 586 35 l 649 0 l 501 0 q 456 19 475 0 q 436 65 436 39 l 436 67 q 265 0 365 0 q 94 66 165 0 q 24 226 24 132 q 94 385 24 319 q 265 451 165 451 q 436 385 365 451 q 437 419 436 386 q 437 470 438 453 q 435 523 436 488 q 429 581 433 558 q 419 628 425 603 q 401 669 413 654 q 375 688 389 683 q 289 641 335 700 q 210 481 243 582 l 69 561 q 168 681 107 636 q 301 725 229 725 q 425 694 372 725 q 506 611 478 663 q 553 492 535 560 q 575 353 572 425 q 581 210 578 281 q 579 78 583 139 m 357 68 q 383 90 357 68 q 428 190 408 113 q 424 332 447 267 q 349 412 401 397 q 244 383 296 426 q 174 261 193 339 q 177 119 154 183 q 253 39 200 54 q 357 68 306 24 m 415 964 l 275 760 l 258 769 l 382 983 l 415 964 z "},"â":{"ha":658,"x_min":24,"x_max":650,"o":"m 579 78 q 649 35 586 35 l 649 0 l 501 0 q 456 19 475 0 q 436 65 436 39 l 436 67 q 265 0 365 0 q 94 66 165 0 q 24 226 24 132 q 94 385 24 319 q 265 451 165 451 q 436 385 365 451 q 437 419 436 386 q 437 470 438 453 q 435 523 436 488 q 429 581 433 558 q 419 628 425 603 q 401 668 413 653 q 375 688 389 683 q 289 641 335 700 q 210 481 243 582 l 69 561 q 168 681 107 636 q 301 725 229 725 q 425 694 372 725 q 506 611 478 663 q 553 492 535 560 q 575 353 572 425 q 581 210 578 281 q 579 78 583 139 m 357 68 q 383 90 357 68 q 428 190 408 113 q 424 332 447 267 q 349 412 401 397 q 244 383 296 426 q 174 261 193 339 q 177 119 154 183 q 253 39 200 54 q 357 68 306 24 m 336 964 l 196 760 l 179 769 l 303 983 l 369 983 l 493 769 l 476 760 l 336 964 z "},"ã":{"ha":658,"x_min":24,"x_max":650,"o":"m 281 794 q 275 792 281 794 q 262 783 269 790 q 250 763 254 775 l 214 774 q 235 810 219 794 q 271 831 250 825 q 313 831 292 836 q 350 810 335 825 q 369 799 358 801 q 392 799 381 796 q 411 810 403 803 q 422 829 419 818 l 460 819 q 438 783 453 799 q 401 763 422 768 q 360 763 381 757 q 324 783 339 768 q 303 794 315 790 q 281 794 292 797 m 579 78 q 649 35 586 35 l 649 0 l 501 0 q 456 19 475 0 q 436 65 436 39 l 436 67 q 265 0 365 0 q 94 66 165 0 q 24 226 24 132 q 94 385 24 319 q 265 451 165 451 q 436 385 365 451 q 437 419 436 386 q 437 470 438 453 q 435 523 436 488 q 429 581 433 558 q 419 628 425 603 q 401 669 413 654 q 375 688 389 683 q 289 641 335 700 q 210 481 243 582 l 69 561 q 168 681 107 636 q 301 725 229 725 q 425 694 372 725 q 506 611 478 663 q 553 492 535 560 q 575 353 572 425 q 581 210 578 281 q 579 78 583 139 m 357 68 q 383 90 357 68 q 428 190 408 113 q 424 332 447 267 q 349 412 401 397 q 244 383 296 426 q 174 261 193 339 q 177 119 154 183 q 253 39 200 54 q 357 68 306 24 z "},"ä":{"ha":658,"x_min":22,"x_max":650,"o":"m 475 781 q 465 770 475 781 q 425 760 454 760 q 375 781 396 760 q 354 831 354 801 q 375 881 354 860 q 425 901 396 901 q 475 881 454 901 q 496 831 496 860 q 475 781 496 801 m 579 78 q 649 35 586 35 l 649 0 l 501 0 q 456 19 475 0 q 436 65 436 39 l 436 67 q 265 0 365 0 q 94 66 165 0 q 24 226 24 132 q 94 385 24 319 q 265 451 165 451 q 436 385 365 451 q 437 420 436 386 q 437 471 438 454 q 435 523 436 488 q 429 581 433 558 q 419 628 425 603 q 401 669 413 654 q 375 688 389 683 q 289 642 335 700 q 210 481 243 583 l 69 561 q 168 681 107 636 q 301 725 229 725 q 425 694 372 725 q 506 611 478 663 q 553 492 535 560 q 575 353 572 425 q 581 210 578 282 q 579 78 583 139 m 357 68 q 383 90 357 68 q 428 190 408 113 q 424 332 447 267 q 349 412 401 397 q 244 383 296 426 q 174 261 193 339 q 177 119 154 183 q 253 39 200 54 q 357 68 306 24 m 298 781 q 288 770 298 781 q 248 760 278 760 q 197 781 218 760 q 176 831 176 801 q 197 881 176 860 q 248 901 218 901 q 298 881 278 901 q 318 831 318 860 q 298 781 318 801 z "},"å":{"ha":658,"x_min":24,"x_max":650,"o":"m 579 78 q 649 35 586 35 l 649 0 l 501 0 q 456 19 475 0 q 436 65 436 39 l 436 67 q 265 0 365 0 q 94 66 165 0 q 24 226 24 132 q 94 385 24 319 q 265 451 165 451 q 436 385 365 451 q 437 420 436 386 q 437 471 438 454 q 435 523 436 488 q 429 581 433 558 q 419 628 425 603 q 401 669 413 654 q 375 688 389 683 q 289 642 335 700 q 210 481 243 583 l 69 561 q 168 681 107 636 q 301 725 229 725 q 425 694 372 725 q 506 611 478 663 q 553 492 535 560 q 575 353 572 425 q 581 210 578 282 q 579 78 583 139 m 357 68 q 383 90 357 68 q 428 190 408 113 q 424 332 447 267 q 349 412 401 397 q 244 383 296 426 q 174 261 193 339 q 177 119 154 183 q 253 39 200 54 q 357 68 306 24 m 386 781 q 376 770 386 781 q 336 760 365 760 q 286 781 307 760 q 265 831 265 801 q 286 881 265 860 q 336 901 307 901 q 386 881 365 901 q 407 831 407 860 q 386 781 407 801 m 376 871 q 368 879 376 871 q 336 888 360 888 q 296 871 313 888 q 279 831 279 854 q 296 790 279 807 q 336 774 313 774 q 376 790 360 774 q 393 831 393 807 q 376 871 393 854 z "},"æ":{"ha":988,"x_min":24,"x_max":967,"o":"m 818 296 l 957 215 l 964 213 q 863 58 931 117 q 711 0 794 0 l 501 0 q 456 19 475 0 q 436 65 436 39 l 436 67 q 265 0 365 0 q 94 66 165 0 q 24 226 24 132 q 94 385 24 319 q 265 451 165 451 q 435 386 364 451 q 436 411 435 397 q 375 688 439 667 q 289 641 335 700 q 210 481 243 582 l 69 561 q 168 681 107 636 q 301 725 229 725 q 508 608 439 725 q 599 694 546 664 q 711 725 651 725 q 865 665 796 725 q 967 506 933 604 l 579 282 q 581 146 582 221 q 638 38 593 51 q 733 99 682 24 q 818 296 785 174 m 597 399 q 583 325 589 363 l 846 476 q 834 620 850 563 q 785 688 818 678 q 683 618 738 703 q 597 399 628 533 m 357 68 q 383 90 357 68 q 428 190 408 113 q 424 332 447 267 q 349 412 401 397 q 244 383 296 426 q 174 261 193 339 q 177 119 154 183 q 253 39 200 54 q 357 68 306 24 z "},"ç":{"ha":583,"x_min":29,"x_max":563,"o":"m 296 -176 q 246 -157 267 -178 q 225 -106 225 -136 q 245 -56 225 -76 q 296 -35 265 -35 q 364 -90 353 -35 q 336 -186 375 -146 q 247 -208 301 -224 q 296 -176 269 -203 m 110 106 q 70 159 110 106 q 29 363 29 213 q 110 619 29 513 q 306 725 192 725 q 460 665 390 725 q 561 506 529 604 l 438 433 q 433 606 449 535 q 381 688 417 676 q 278 618 333 703 q 192 399 222 533 q 174 158 163 264 q 232 38 186 53 q 328 99 276 24 q 413 296 381 174 l 558 213 q 457 58 525 117 q 306 0 389 0 q 110 106 192 0 z "},"è":{"ha":583,"x_min":28,"x_max":563,"o":"m 179 325 l 442 476 q 428 620 444 563 q 379 688 413 678 q 277 618 332 703 q 192 399 222 533 q 179 325 185 363 m 217 965 l 250 983 l 374 769 l 357 760 l 217 965 m 110 106 q 70 159 110 106 q 29 363 29 213 q 110 619 29 513 q 306 725 192 725 q 460 665 390 725 q 561 506 529 604 l 174 281 q 181 116 165 183 q 232 38 197 49 q 328 99 276 24 q 413 296 381 174 l 553 215 l 558 213 q 457 58 525 117 q 306 0 389 0 q 110 106 192 0 z "},"é":{"ha":582,"x_min":28,"x_max":561,"o":"m 179 325 l 440 476 q 428 620 444 563 q 379 688 413 678 q 277 618 332 703 q 192 399 222 533 q 179 325 183 360 m 340 983 l 374 965 l 233 760 l 217 769 l 340 983 m 110 106 q 70 159 110 106 q 29 363 29 213 q 110 619 29 513 q 306 725 192 725 q 460 665 390 725 q 561 506 529 604 l 174 281 q 181 116 165 183 q 232 38 196 49 q 328 99 276 24 q 413 296 381 174 l 553 215 l 558 213 q 457 58 525 117 q 306 0 389 0 q 110 106 192 0 z "},"ê":{"ha":583,"x_min":28,"x_max":563,"o":"m 179 325 l 442 476 q 428 620 444 563 q 379 688 413 678 q 277 618 332 703 q 192 399 222 533 q 179 325 185 363 m 263 983 l 328 983 l 451 769 l 435 760 l 294 965 l 154 760 l 139 769 l 263 983 m 110 106 q 70 159 110 106 q 29 363 29 213 q 110 619 29 513 q 306 725 192 725 q 460 665 390 725 q 561 506 529 604 l 174 281 q 181 116 165 183 q 232 38 197 49 q 328 99 276 24 q 413 296 381 174 l 553 215 l 558 213 q 457 58 525 117 q 307 0 389 0 q 110 106 192 0 z "},"ë":{"ha":583,"x_min":28,"x_max":563,"o":"m 179 325 l 442 476 q 428 620 444 563 q 379 688 413 678 q 277 618 332 703 q 192 399 222 533 q 179 325 183 360 m 333 781 q 323 791 333 781 q 313 831 313 801 q 333 881 313 860 q 383 901 354 901 q 433 881 413 901 q 454 831 454 860 q 433 781 454 801 q 383 760 413 760 q 333 781 354 760 m 157 781 q 147 791 157 781 q 136 831 136 801 q 157 881 136 860 q 207 901 178 901 q 257 881 236 901 q 278 831 278 860 q 257 781 278 801 q 207 760 236 760 q 157 781 178 760 m 110 106 q 70 159 110 106 q 29 363 29 213 q 110 619 29 513 q 306 725 192 725 q 460 665 390 725 q 561 506 529 604 l 174 281 q 181 116 165 183 q 232 38 197 49 q 328 99 276 24 q 413 296 381 174 l 553 215 l 558 213 q 457 58 525 117 q 307 0 389 0 q 110 106 192 0 z "},"ì":{"ha":318,"x_min":19,"x_max":303,"o":"m 82 965 l 115 983 l 239 769 l 222 760 l 82 965 m 167 725 q 213 706 193 725 q 232 660 232 688 l 232 82 q 303 36 238 36 l 303 0 l 19 0 l 19 35 q 90 82 83 35 l 90 644 q 19 690 83 690 l 19 725 l 167 725 z "},"í":{"ha":318,"x_min":18,"x_max":303,"o":"m 207 983 l 239 965 l 99 760 l 82 769 l 207 983 m 167 725 q 213 706 193 725 q 232 660 232 688 l 232 82 q 303 36 238 36 l 303 0 l 19 0 l 19 35 q 90 82 83 35 l 90 644 q 19 690 83 690 l 19 725 l 167 725 z "},"î":{"ha":318,"x_min":4,"x_max":318,"o":"m 128 983 l 193 983 l 318 769 l 301 760 l 161 965 l 21 760 l 4 769 l 128 983 m 167 725 q 213 706 193 725 q 232 660 232 688 l 232 82 q 303 36 238 36 l 303 0 l 19 0 l 19 35 q 90 82 83 35 l 90 644 q 19 690 83 690 l 19 725 l 167 725 z "},"ï":{"ha":318,"x_min":1,"x_max":321,"o":"m 199 781 q 188 791 199 781 q 178 831 178 801 q 199 881 178 860 q 249 901 219 901 q 299 881 278 901 q 319 831 319 860 q 299 781 319 801 q 249 760 278 760 q 199 781 219 760 m 22 781 q 12 791 22 781 q 1 831 1 801 q 22 881 1 860 q 72 901 43 901 q 122 881 101 901 q 143 831 143 860 q 122 781 143 801 q 72 760 101 760 q 22 781 43 760 m 165 725 q 212 706 193 725 q 231 660 231 688 l 231 82 q 301 36 238 36 l 301 0 l 19 0 l 19 35 q 90 82 83 35 l 90 644 q 19 690 83 690 l 19 725 l 165 725 z "},"ñ":{"ha":725,"x_min":19,"x_max":715,"o":"m 354 781 q 335 791 346 788 q 313 790 324 794 q 293 779 301 788 q 281 761 285 771 l 244 771 q 266 807 250 792 q 303 828 282 822 q 344 828 322 833 q 381 807 365 822 q 400 797 389 800 q 422 797 411 793 q 442 808 435 800 q 453 826 450 815 l 490 817 q 468 781 483 796 q 432 760 453 765 q 391 760 413 754 q 354 781 369 765 m 167 725 q 213 706 193 725 q 232 660 232 688 l 232 619 q 403 725 303 725 q 574 619 503 725 q 644 363 644 513 l 644 82 q 715 36 650 36 l 715 0 l 432 0 l 432 35 q 503 82 497 35 l 503 363 q 503 446 503 417 q 501 517 503 475 q 494 583 499 560 q 484 632 490 607 q 467 670 478 657 q 440 688 456 683 q 342 638 393 703 q 262 490 292 572 q 232 363 232 408 l 232 82 q 303 36 238 36 l 303 0 l 19 0 l 19 35 q 90 82 83 35 l 90 644 q 19 690 83 690 l 19 725 l 167 725 z "},"ò":{"ha":614,"x_min":29,"x_max":585,"o":"m 110 619 q 151 672 110 619 q 306 725 192 725 q 502 619 421 725 q 583 363 583 513 q 502 106 583 213 q 306 0 421 0 q 110 106 192 0 q 29 363 29 213 q 110 619 29 513 m 334 107 q 361 149 334 107 q 419 326 389 192 q 438 567 450 461 q 380 688 426 674 q 278 618 333 703 q 192 399 222 533 q 174 158 163 264 q 233 38 186 53 q 334 107 279 22 m 385 769 l 368 760 l 228 965 l 261 983 l 385 769 z "},"ó":{"ha":614,"x_min":29,"x_max":585,"o":"m 385 965 l 244 760 l 228 769 l 351 983 l 385 965 m 110 619 q 151 672 110 619 q 306 725 192 725 q 502 619 421 725 q 583 363 583 513 q 502 106 583 213 q 306 0 421 0 q 110 106 192 0 q 29 363 29 213 q 110 619 29 513 m 335 107 q 363 149 335 107 q 420 326 390 192 q 439 567 450 461 q 381 688 428 674 q 278 618 333 703 q 192 399 222 533 q 174 158 163 264 q 233 38 186 53 q 335 107 279 22 z "},"ô":{"ha":614,"x_min":29,"x_max":585,"o":"m 307 965 l 165 760 l 150 769 l 274 983 l 339 983 l 463 769 l 446 760 l 307 965 m 110 619 q 151 672 110 619 q 306 725 192 725 q 502 619 421 725 q 583 363 583 513 q 502 106 583 213 q 306 0 421 0 q 110 106 192 0 q 29 363 29 213 q 110 619 29 513 m 335 107 q 363 149 335 107 q 420 326 390 192 q 439 567 450 461 q 381 688 428 674 q 278 618 333 703 q 193 399 224 533 q 174 158 163 264 q 233 38 186 53 q 335 107 279 22 z "},"õ":{"ha":614,"x_min":29,"x_max":585,"o":"m 251 791 q 246 789 251 791 q 232 780 240 788 q 219 761 224 772 l 183 771 q 205 807 189 792 q 242 828 221 822 q 283 828 263 833 q 319 807 304 822 q 339 797 328 800 q 361 797 350 793 q 381 808 372 800 q 393 826 389 815 l 429 817 q 407 781 424 796 q 371 760 392 765 q 330 760 351 754 q 293 779 308 765 q 274 791 285 788 q 251 791 263 794 m 110 619 q 151 672 110 619 q 306 725 192 725 q 502 619 421 725 q 583 363 583 513 q 502 106 583 213 q 306 0 421 0 q 110 106 192 0 q 29 363 29 213 q 110 619 29 513 m 335 107 q 363 149 335 107 q 420 326 390 192 q 438 567 450 461 q 380 688 426 674 q 278 618 333 703 q 192 399 222 533 q 174 158 163 264 q 233 38 186 53 q 335 107 279 22 z "},"ö":{"ha":614,"x_min":29,"x_max":585,"o":"m 444 781 q 434 770 444 781 q 394 760 424 760 q 344 781 365 760 q 324 831 324 801 q 344 881 324 860 q 394 901 365 901 q 444 881 424 901 q 465 831 465 860 q 444 781 465 801 m 110 619 q 151 672 110 619 q 306 725 192 725 q 502 619 421 725 q 583 363 583 513 q 502 106 583 213 q 306 0 421 0 q 110 106 192 0 q 29 363 29 213 q 110 619 29 513 m 335 107 q 363 149 335 107 q 420 326 390 192 q 439 567 450 461 q 381 688 428 674 q 278 618 333 703 q 193 399 224 533 q 174 158 163 264 q 233 38 186 53 q 335 107 279 22 m 268 781 q 258 770 268 781 q 218 760 247 760 q 168 781 189 760 q 147 831 147 801 q 168 881 147 860 q 218 901 189 901 q 268 881 247 901 q 289 831 289 860 q 268 781 289 801 z "},"ø":{"ha":615,"x_min":29,"x_max":585,"o":"m 442 558 l 183 113 q 233 38 200 49 q 335 107 281 22 q 421 326 390 192 q 442 558 450 456 m 193 399 q 174 167 164 271 l 432 614 q 381 688 415 676 q 278 618 333 703 q 193 399 224 533 m 31 363 q 112 619 31 513 q 307 725 193 725 q 461 664 392 725 l 496 725 l 536 725 l 488 639 q 585 363 585 531 q 503 106 585 213 q 307 0 422 0 q 154 61 224 0 l 99 -35 l 57 -35 l 128 86 q 31 363 31 196 z "},"ù":{"ha":722,"x_min":7,"x_max":704,"o":"m 278 965 l 311 983 l 435 769 l 418 760 l 278 965 m 557 0 q 511 19 531 0 q 492 65 492 39 l 492 107 q 321 0 421 0 q 150 106 221 0 q 79 363 79 213 l 79 644 q 8 690 72 690 l 8 725 l 292 725 l 292 690 q 221 644 226 690 l 221 363 q 221 280 221 310 q 223 208 221 250 q 229 142 225 165 q 240 93 233 118 q 257 55 246 68 q 282 38 268 42 q 381 89 331 24 q 462 235 432 154 q 492 363 492 317 l 492 644 q 421 690 486 690 l 421 725 l 704 725 l 704 690 q 633 644 639 690 l 633 82 q 704 36 639 36 l 704 0 l 557 0 z "},"ú":{"ha":722,"x_min":7,"x_max":704,"o":"m 401 983 l 435 965 l 294 760 l 278 769 l 401 983 m 557 0 q 511 19 531 0 q 492 65 492 39 l 492 107 q 321 0 421 0 q 150 106 221 0 q 79 363 79 213 l 79 644 q 8 690 72 690 l 8 725 l 292 725 l 292 690 q 221 644 226 690 l 221 363 q 221 280 221 310 q 223 208 221 250 q 229 142 225 165 q 240 93 233 118 q 257 55 246 68 q 282 38 268 42 q 381 89 329 24 q 462 235 432 154 q 492 363 492 317 l 492 644 q 421 690 486 690 l 421 725 l 704 725 l 704 690 q 633 644 639 690 l 633 82 q 704 36 639 36 l 704 0 l 557 0 z "},"û":{"ha":722,"x_min":7,"x_max":704,"o":"m 324 983 l 389 983 l 513 769 l 496 760 l 356 965 l 215 760 l 199 769 l 324 983 m 557 0 q 510 19 529 0 q 492 65 492 39 l 492 107 q 321 0 421 0 q 150 106 221 0 q 79 363 79 213 l 79 644 q 8 690 72 690 l 8 725 l 292 725 l 292 690 q 221 644 226 690 l 221 363 q 221 280 221 310 q 223 208 221 250 q 228 142 225 165 q 239 93 232 118 q 257 55 246 68 q 282 38 268 42 q 381 89 329 24 q 462 235 432 154 q 492 363 492 317 l 492 644 q 421 690 486 690 l 421 725 l 704 725 l 704 690 q 633 644 639 690 l 633 82 q 704 36 639 36 l 704 0 l 557 0 z "},"ü":{"ha":722,"x_min":7,"x_max":704,"o":"m 394 781 q 384 791 394 781 q 374 831 374 801 q 394 881 374 860 q 444 901 415 901 q 494 881 474 901 q 515 831 515 860 q 494 781 515 801 q 444 760 474 760 q 394 781 415 760 m 218 781 q 208 791 218 781 q 197 831 197 801 q 218 881 197 860 q 268 901 239 901 q 318 881 297 901 q 339 831 339 860 q 318 781 339 801 q 268 760 297 760 q 218 781 239 760 m 557 0 q 511 19 531 0 q 492 65 492 39 l 492 107 q 321 0 421 0 q 150 106 221 0 q 79 363 79 213 l 79 644 q 8 690 72 690 l 8 725 l 292 725 l 292 690 q 221 644 226 690 l 221 363 q 221 280 221 310 q 223 208 221 250 q 229 142 225 165 q 240 93 233 118 q 257 55 246 68 q 282 38 268 42 q 381 89 331 24 q 462 235 432 154 q 492 363 492 317 l 492 644 q 421 690 486 690 l 421 725 l 704 725 l 704 690 q 633 644 639 690 l 633 82 q 704 36 639 36 l 704 0 l 557 0 z "},"Œ":{"ha":1607,"x_min":22,"x_max":1596,"o":"m 853 372 l 853 397 q 783 668 849 538 q 681 815 740 753 q 556 907 621 876 q 424 937 492 938 q 300 899 357 936 q 167 649 186 824 q 233 304 147 475 q 335 159 275 221 q 460 66 396 97 q 592 36 525 35 q 715 75 660 38 q 815 195 781 117 q 853 372 850 274 m 782 972 l 1596 972 l 1596 865 l 1560 865 q 1514 936 1560 931 l 994 936 l 994 575 l 1372 575 q 1418 644 1418 581 l 1454 644 l 1454 468 l 1418 468 q 1372 539 1418 533 l 994 539 l 994 35 l 1514 35 q 1560 106 1560 42 l 1596 106 l 1596 0 l 782 0 l 782 35 q 853 81 846 35 l 853 143 q 696 38 785 76 q 508 0 607 0 q 265 65 376 0 q 88 242 153 131 q 22 486 22 354 q 88 731 22 618 q 265 908 153 843 q 508 972 376 972 q 696 935 607 972 q 853 829 785 897 l 853 890 q 782 936 846 936 l 782 972 z "},"œ":{"ha":996,"x_min":28,"x_max":975,"o":"m 826 296 l 967 215 l 972 213 q 871 58 939 117 q 719 0 803 0 q 606 32 660 0 q 513 121 551 64 q 420 32 474 64 q 306 0 367 0 q 110 106 192 0 q 29 363 29 213 q 110 619 29 513 q 306 725 192 725 q 420 693 367 725 q 513 604 474 661 q 606 693 551 661 q 719 725 660 725 q 874 665 804 725 q 975 506 943 604 l 588 282 q 594 117 579 185 q 646 38 610 49 q 742 99 690 24 q 826 296 794 174 m 606 399 q 593 325 597 363 l 854 476 q 842 620 858 563 q 793 688 826 678 q 691 618 746 703 q 606 399 636 533 m 335 107 q 363 149 335 107 q 420 326 390 192 q 438 567 450 461 q 380 688 426 674 q 278 618 333 703 q 192 399 222 533 q 174 158 163 264 q 233 38 186 53 q 335 107 279 22 z "},"":{"ha":2050,"x_min":21,"x_max":2029,"o":"m 1215 506 l 1357 506 l 1357 82 q 1428 36 1363 36 l 1428 0 l 1144 0 l 1144 36 q 1215 82 1208 36 l 1215 506 m 508 0 q 265 65 376 0 q 88 242 153 131 q 22 486 22 354 q 88 731 22 618 q 265 908 153 843 q 508 972 376 972 q 753 906 642 972 q 929 729 865 840 l 792 650 q 783 668 786 663 q 681 815 742 753 q 556 907 621 876 q 424 937 492 938 q 300 899 357 936 q 167 649 186 824 q 233 304 147 475 q 321 180 268 235 q 431 96 374 125 q 549 54 489 67 q 664 57 610 42 q 761 106 718 72 q 829 204 804 140 q 854 353 854 268 q 783 399 849 399 l 783 433 l 919 433 q 986 469 963 433 q 1071 546 1018 518 q 1214 576 1124 574 l 1215 892 q 1144 938 1208 938 l 1144 972 l 1428 972 l 1428 938 q 1357 892 1363 938 l 1357 575 l 1817 575 l 1817 892 q 1746 938 1810 938 l 1746 972 l 2029 972 l 2029 938 q 1958 892 1964 938 l 1958 82 q 2029 36 1964 36 l 2029 0 l 1746 0 l 1746 36 q 1817 82 1810 36 l 1817 539 l 1425 539 q 1358 540 1403 539 q 1286 542 1314 542 q 1218 540 1258 542 q 1149 529 1178 538 q 1090 507 1121 521 q 1036 468 1060 493 q 996 408 1013 443 l 996 82 q 1067 36 1001 36 l 1067 0 l 854 0 l 854 71 q 931 195 901 125 q 965 308 960 265 l 971 351 q 878 178 918 229 q 716 47 815 93 q 508 0 617 0 z "},"":{"ha":1560,"x_min":21,"x_max":1546,"o":"m 554 614 l 463 943 l 279 475 q 507 474 485 475 q 639 425 585 469 q 696 357 678 393 q 714 294 714 321 q 717 228 714 267 q 729 161 719 189 q 826 67 753 100 q 990 34 900 35 q 1169 49 1081 33 q 1323 100 1258 65 q 1399 174 1388 135 q 1397 294 1418 246 q 1324 367 1375 342 q 1206 409 1272 392 q 1068 446 1139 426 q 938 492 997 465 q 841 571 879 518 q 803 700 803 624 q 912 897 803 815 q 1174 979 1021 979 q 1340 950 1263 979 q 1468 871 1417 921 l 1346 800 q 1263 897 1311 861 q 1165 940 1214 933 q 1072 934 1117 946 q 995 890 1028 922 q 950 813 963 857 q 944 712 935 750 q 985 644 954 674 q 1060 601 1017 615 q 1158 570 1104 586 q 1265 543 1211 554 q 1369 511 1318 532 q 1459 464 1419 490 q 1522 392 1499 438 q 1546 285 1546 346 q 1489 149 1546 210 q 1344 53 1432 88 q 1152 6 1257 19 q 953 4 1047 -7 q 788 54 860 15 q 694 154 715 93 q 683 220 685 183 q 681 283 681 257 q 665 340 681 308 q 614 400 650 372 q 500 439 564 439 l 264 439 l 124 82 q 119 62 117 69 q 124 50 122 54 q 134 44 125 46 q 148 42 143 42 q 165 42 153 42 l 165 7 l 21 7 l 21 42 q 61 48 49 42 q 85 79 74 54 l 411 906 q 414 924 417 917 q 410 935 411 932 q 401 941 408 939 q 388 943 393 943 q 374 943 383 943 q 368 943 369 943 l 368 978 l 600 979 l 731 508 l 583 508 l 583 510 l 554 614 z "},"":{"ha":1882,"x_min":21,"x_max":1871,"o":"m 1057 503 l 1199 503 l 1199 81 q 1269 35 1204 35 l 1269 0 l 986 0 l 986 35 q 1057 81 1051 35 l 1057 503 m 1199 936 l 1199 574 l 1476 574 q 1605 627 1551 574 q 1658 756 1658 681 q 1605 883 1658 831 q 1476 936 1551 936 l 1199 936 m 21 972 l 835 972 l 835 865 l 799 865 q 753 936 799 931 l 233 936 l 233 272 q 693 574 354 574 l 1057 574 l 1057 890 q 986 936 1050 936 l 986 972 l 1583 972 q 1736 908 1672 972 q 1800 756 1800 844 q 1754 622 1800 681 q 1638 546 1708 564 q 1755 440 1710 510 q 1800 288 1800 371 l 1800 81 q 1871 35 1806 35 l 1871 0 l 1588 0 l 1588 35 q 1658 81 1651 35 l 1658 308 q 1591 472 1658 404 q 1428 539 1524 539 l 693 539 q 363 414 492 539 q 233 86 233 289 l 233 35 l 753 35 q 799 106 799 42 l 835 106 l 835 0 l 21 0 l 21 35 q 92 81 85 35 l 92 890 q 21 936 85 936 l 21 972 z "}}}
